<svg id="svg" version="1.1" xmlns="http://www.w3.org/2000/svg" xmlns:xlink="http://www.w3.org/1999/xlink" width="400" height="400" viewBox="0, 0, 400,400"><g id="svgg"><path id="path0" d="M112.508 13.821 C 105.333 15.409,99.890 20.320,97.610 27.264 C 96.871 29.516,96.800 30.761,96.800 41.467 L 96.800 53.201 203.300 53.101 L 309.800 53.000 309.916 43.800 C 310.157 24.649,306.607 17.587,294.998 14.126 C 291.739 13.154,116.843 12.862,112.508 13.821 M206.275 27.463 C 210.323 29.383,211.037 35.048,207.620 38.134 C 203.266 42.068,196.800 39.224,196.800 33.374 C 196.800 28.476,201.816 25.346,206.275 27.463 M96.973 66.843 C 96.569 67.497,96.463 143.462,96.721 247.701 L 96.932 333.201 203.366 333.101 L 309.800 333.000 309.901 200.221 C 309.971 107.785,309.873 67.313,309.581 67.021 C 308.929 66.369,97.376 66.192,96.973 66.843 M296.699 92.800 C 296.787 115.206,296.730 118.069,296.218 117.090 C 294.303 113.430,289.753 112.095,286.235 114.160 C 284.637 115.098,277.200 122.591,277.200 123.263 C 277.200 123.450,279.104 121.631,281.432 119.222 C 284.503 116.044,286.145 114.658,287.415 114.173 C 293.680 111.781,298.862 118.604,294.879 124.000 C 292.951 126.612,286.706 132.369,285.296 132.834 C 280.895 134.287,276.503 130.786,276.889 126.135 C 276.986 124.961,276.916 124.000,276.733 124.000 C 276.142 124.000,276.374 128.624,277.031 129.942 C 278.464 132.815,282.408 134.319,285.679 133.240 C 287.025 132.796,296.018 124.130,296.513 122.800 C 296.636 122.470,296.751 131.234,296.768 142.276 C 296.789 155.434,296.660 162.439,296.395 162.603 C 295.980 162.860,288.932 161.864,286.377 161.187 C 285.295 160.901,284.726 160.401,284.007 159.105 C 282.938 157.177,279.268 151.627,278.624 150.963 C 278.391 150.723,277.750 149.926,277.200 149.192 C 274.151 145.122,267.335 138.047,263.400 134.865 C 261.860 133.620,260.510 132.491,260.400 132.356 C 259.985 131.846,250.417 125.600,250.050 125.600 C 249.839 125.600,249.607 125.458,249.533 125.284 C 249.320 124.780,240.685 120.639,236.027 118.808 C 230.796 116.752,219.190 113.962,216.219 114.046 C 215.015 114.080,215.420 114.221,217.800 114.596 C 237.597 117.719,256.349 127.504,270.317 142.000 C 274.495 146.336,283.600 158.272,283.600 159.413 C 283.600 159.546,284.108 160.408,284.729 161.328 C 288.983 167.629,293.931 181.930,295.548 192.600 C 302.927 241.277,270.423 288.233,222.600 297.979 C 221.280 298.248,219.840 298.546,219.400 298.640 C 207.580 301.189,191.748 300.229,176.200 296.020 C 157.845 291.051,137.705 276.301,126.355 259.513 C 124.333 256.523,118.800 247.051,118.800 246.579 C 118.800 246.492,118.260 245.241,117.600 243.800 C 116.940 242.359,116.400 241.002,116.400 240.785 C 116.400 240.567,116.229 240.077,116.019 239.695 C 110.998 230.545,108.624 205.860,111.354 191.200 C 112.508 185.001,112.510 184.987,112.089 185.400 C 111.865 185.620,111.581 186.520,111.457 187.400 C 111.333 188.280,111.044 190.080,110.816 191.400 C 110.587 192.720,110.234 195.870,110.031 198.400 C 109.829 200.930,109.532 204.480,109.373 206.288 L 109.083 209.576 103.142 215.633 L 97.200 221.690 97.200 144.444 L 97.200 67.198 196.900 67.299 L 296.600 67.400 296.699 92.800 M126.400 87.254 C 121.793 89.832,121.854 93.332,126.669 102.811 C 132.239 113.777,134.783 115.687,139.946 112.781 C 144.701 110.105,144.588 106.932,139.368 96.546 C 134.263 86.390,131.492 84.405,126.400 87.254 M273.189 87.237 C 270.986 88.515,263.143 102.923,263.241 105.512 L 263.282 106.600 263.579 105.400 C 264.063 103.440,271.036 89.726,272.058 88.723 C 276.519 84.344,284.117 88.339,282.941 94.446 C 282.608 96.173,275.799 109.894,274.659 111.135 C 271.342 114.745,265.015 113.171,263.668 108.400 C 263.297 107.089,263.270 107.070,263.236 108.106 C 263.096 112.406,269.851 115.196,273.800 112.468 C 276.407 110.667,283.756 95.882,283.511 92.931 C 283.082 87.761,277.548 84.708,273.189 87.237 M132.281 87.286 C 135.242 88.573,142.857 102.571,142.857 106.727 C 142.857 112.430,135.638 115.441,131.891 111.301 C 129.870 109.068,123.600 95.482,123.600 93.336 C 123.600 88.733,128.213 85.518,132.281 87.286 M113.200 114.054 C 110.309 115.672,108.891 120.376,110.427 123.252 C 111.263 124.817,118.796 132.307,120.208 132.977 C 124.731 135.123,130.059 131.867,130.105 126.928 C 130.134 123.888,129.815 123.346,125.243 118.665 C 119.829 113.121,116.883 111.993,113.200 114.054 M192.715 113.528 C 192.338 113.678,197.056 113.800,203.200 113.800 C 209.343 113.800,214.061 113.678,213.685 113.528 C 213.308 113.379,208.590 113.256,203.200 113.256 C 197.810 113.256,193.092 113.379,192.715 113.528 M119.113 114.216 C 120.724 114.884,128.097 121.921,129.028 123.680 C 131.461 128.276,127.365 133.796,122.107 133.007 C 120.174 132.717,112.328 125.758,110.960 123.120 C 108.224 117.843,113.627 111.943,119.113 114.216 M186.600 114.378 C 185.940 114.547,184.410 114.898,183.200 115.159 C 179.056 116.053,171.739 118.248,168.900 119.450 C 165.354 120.950,164.376 121.389,161.600 122.723 C 159.950 123.515,158.510 124.262,158.400 124.382 C 158.290 124.502,157.770 124.842,157.245 125.138 C 156.720 125.433,155.654 126.033,154.876 126.469 C 146.919 130.939,136.691 139.845,130.611 147.600 C 126.702 152.586,124.800 155.153,124.800 155.442 C 124.800 155.571,124.461 156.154,124.047 156.738 C 120.850 161.248,116.446 170.519,114.225 177.416 C 113.661 179.167,113.020 181.153,112.800 181.828 C 112.580 182.504,112.414 183.494,112.432 184.028 C 112.449 184.563,112.521 184.820,112.592 184.600 C 112.663 184.380,113.198 182.580,113.781 180.600 C 121.927 152.943,142.013 130.947,169.200 119.913 C 169.750 119.689,170.513 119.348,170.895 119.153 C 171.277 118.959,171.916 118.800,172.315 118.800 C 172.714 118.800,173.211 118.657,173.420 118.482 C 174.286 117.756,183.471 115.405,188.600 114.596 C 191.461 114.145,191.588 114.091,189.800 114.082 C 188.700 114.077,187.260 114.210,186.600 114.378 M199.200 187.200 C 198.220 187.514,198.224 187.521,199.400 187.554 C 200.060 187.573,200.870 187.413,201.200 187.200 C 201.958 186.710,200.730 186.710,199.200 187.200 M205.400 187.200 C 205.840 187.389,206.650 187.538,207.200 187.532 L 208.200 187.520 207.200 187.200 C 206.650 187.024,205.840 186.874,205.400 186.868 L 204.600 186.856 205.400 187.200 M194.454 188.805 C 191.109 190.387,186.902 194.553,185.456 197.714 C 183.956 200.993,184.183 201.099,185.831 197.889 C 188.010 193.642,193.990 188.400,196.655 188.400 C 196.929 188.400,197.264 188.220,197.400 188.000 C 197.801 187.351,197.152 187.529,194.454 188.805 M209.200 187.757 C 209.200 187.849,210.384 188.478,211.830 189.155 C 216.330 191.261,219.874 195.430,222.033 201.157 C 223.466 204.958,222.419 212.567,219.864 216.927 C 217.948 220.196,212.391 224.800,210.362 224.800 C 209.969 224.800,209.536 224.980,209.400 225.200 C 209.264 225.420,208.569 225.600,207.856 225.600 C 207.143 225.600,206.364 225.796,206.124 226.036 C 205.486 226.674,199.142 226.102,197.000 225.214 C 191.639 222.989,189.734 221.465,186.777 217.038 C 185.910 215.739,185.200 214.868,185.200 215.102 C 185.200 216.094,188.757 220.705,190.600 222.102 C 202.392 231.037,217.091 226.572,222.437 212.431 C 223.047 210.816,223.118 202.423,222.533 201.088 C 219.359 193.851,216.345 190.573,210.700 188.216 C 209.875 187.871,209.200 187.665,209.200 187.757 M199.755 200.762 C 197.834 201.933,196.788 203.697,196.596 206.086 L 196.427 208.200 196.772 206.361 C 197.415 202.928,198.380 201.712,201.400 200.530 C 202.299 200.178,202.400 200.054,201.800 200.032 C 201.360 200.016,200.440 200.345,199.755 200.762 M205.907 200.867 C 213.343 204.474,208.362 215.818,200.741 212.633 C 199.235 212.004,198.413 211.192,197.466 209.400 C 197.117 208.740,196.825 208.459,196.816 208.775 C 196.759 210.835,200.527 213.600,203.391 213.600 C 207.507 213.600,211.377 208.630,209.993 205.121 C 208.914 202.385,206.402 199.955,204.720 200.020 C 204.434 200.031,204.968 200.412,205.907 200.867 M183.800 202.000 C 183.648 202.691,183.614 203.347,183.724 203.457 C 183.834 203.567,184.048 203.091,184.200 202.400 C 184.352 201.709,184.386 201.053,184.276 200.943 C 184.166 200.833,183.952 201.309,183.800 202.000 M183.656 210.400 C 183.656 210.730,183.811 211.360,184.000 211.800 C 184.217 212.304,184.344 212.378,184.344 212.000 C 184.344 211.670,184.189 211.040,184.000 210.600 C 183.783 210.096,183.656 210.022,183.656 210.400 M123.759 216.490 C 124.031 219.742,124.134 220.320,125.422 225.800 C 126.103 228.696,127.706 233.850,128.470 235.600 C 128.711 236.150,129.041 236.960,129.205 237.400 C 133.133 247.963,142.983 261.032,153.192 269.225 C 155.700 271.238,162.571 276.000,162.967 276.000 C 163.076 276.000,164.028 276.501,165.082 277.114 C 167.848 278.720,173.643 281.291,173.906 281.028 C 174.029 280.904,173.598 280.618,172.949 280.392 C 172.299 280.165,169.795 278.975,167.384 277.746 C 161.162 274.575,160.939 274.449,160.393 273.792 C 160.123 273.466,159.737 273.200,159.536 273.200 C 158.876 273.200,151.873 267.747,148.545 264.643 C 140.530 257.165,132.909 245.943,129.229 236.200 C 128.730 234.880,128.171 233.440,127.987 233.000 C 127.631 232.152,126.176 227.149,125.601 224.800 C 125.000 222.345,124.460 219.080,124.194 216.300 L 123.936 213.600 146.954 213.600 C 172.355 213.600,170.800 213.445,170.800 215.979 C 170.800 216.437,170.965 217.123,171.167 217.505 C 171.896 218.883,173.200 221.999,173.200 222.362 C 173.200 222.566,173.335 222.793,173.500 222.867 C 173.665 222.940,174.100 223.540,174.466 224.200 C 176.589 228.027,182.189 233.524,186.342 235.857 C 189.200 237.462,188.753 236.898,185.531 234.834 C 178.989 230.642,173.609 223.811,171.643 217.200 C 171.348 216.210,170.926 214.905,170.705 214.300 L 170.303 213.200 146.894 213.200 L 123.485 213.200 123.759 216.490 M235.639 214.460 C 235.398 215.153,235.219 216.008,235.242 216.360 C 235.265 216.712,235.506 216.280,235.778 215.400 L 236.272 213.800 259.698 213.800 C 272.582 213.800,283.040 213.665,282.938 213.500 C 282.836 213.335,272.251 213.200,259.416 213.200 L 236.078 213.200 235.639 214.460 M282.211 217.272 C 282.048 218.522,282.000 219.782,282.104 220.072 C 282.208 220.362,282.426 219.578,282.589 218.328 C 282.752 217.078,282.800 215.818,282.696 215.528 C 282.592 215.238,282.374 216.022,282.211 217.272 M233.489 220.531 C 232.069 223.613,229.940 226.820,227.484 229.577 C 226.888 230.246,226.403 230.930,226.406 231.097 C 226.440 232.751,233.536 222.301,234.733 218.835 C 235.552 216.460,235.046 217.150,233.489 220.531 M281.489 221.600 C 281.336 222.150,281.225 223.050,281.242 223.600 C 281.268 224.461,281.326 224.414,281.658 223.260 C 281.870 222.524,281.981 221.624,281.906 221.260 C 281.808 220.794,281.686 220.893,281.489 221.600 M280.688 225.333 C 280.530 225.736,280.411 226.456,280.425 226.933 C 280.449 227.756,280.471 227.750,280.840 226.825 C 281.054 226.289,281.173 225.569,281.103 225.225 C 280.999 224.711,280.925 224.730,280.688 225.333 M279.404 230.278 C 278.712 232.626,278.474 233.311,277.654 235.300 C 277.404 235.905,277.045 236.805,276.855 237.300 C 273.866 245.099,264.875 258.379,258.821 263.937 C 254.075 268.293,247.133 273.536,244.000 275.128 C 243.450 275.407,242.550 275.999,242.000 276.442 L 241.000 277.248 242.400 276.564 C 243.973 275.795,251.503 270.807,253.108 269.470 C 262.605 261.560,269.183 253.516,274.349 243.494 C 277.357 237.657,280.826 228.692,280.285 228.152 C 280.177 228.044,279.781 229.000,279.404 230.278 M224.124 232.561 C 223.203 233.243,222.438 233.950,222.424 234.134 C 222.411 234.317,223.165 233.877,224.100 233.156 C 225.035 232.436,225.875 231.790,225.967 231.723 C 226.058 231.655,226.058 231.538,225.967 231.461 C 225.875 231.385,225.046 231.880,224.124 232.561 M220.862 234.926 C 220.622 235.215,219.520 235.875,218.414 236.394 C 217.308 236.912,216.474 237.407,216.561 237.495 C 216.757 237.690,220.301 235.895,221.400 235.045 C 221.840 234.704,221.997 234.420,221.749 234.413 C 221.501 234.406,221.102 234.637,220.862 234.926 M191.200 238.052 C 191.750 238.289,192.513 238.644,192.895 238.841 C 193.277 239.039,193.997 239.192,194.495 239.182 C 195.463 239.164,193.320 238.277,191.259 237.844 L 190.200 237.621 191.200 238.052 M214.600 238.000 C 213.829 238.331,213.831 238.345,214.676 238.372 C 215.158 238.387,215.664 238.220,215.800 238.000 C 216.092 237.527,215.701 237.527,214.600 238.000 M212.000 238.800 L 211.000 239.120 212.076 239.160 C 212.668 239.182,213.264 239.020,213.400 238.800 C 213.681 238.345,213.420 238.345,212.000 238.800 M196.183 239.647 C 197.295 240.337,209.865 240.305,210.524 239.611 C 210.902 239.213,210.794 239.174,210.000 239.418 C 208.747 239.804,197.751 239.825,196.400 239.444 C 195.491 239.187,195.471 239.206,196.183 239.647 M238.800 278.015 C 236.376 279.303,233.869 280.400,233.348 280.400 C 233.073 280.400,232.724 280.599,232.574 280.843 C 232.385 281.147,232.596 281.193,233.250 280.987 C 234.485 280.600,240.800 277.564,240.800 277.358 C 240.800 277.070,240.217 277.262,238.800 278.015 M175.600 281.880 C 177.699 282.803,183.610 284.464,184.138 284.281 C 184.392 284.192,183.970 283.980,183.200 283.808 C 182.430 283.636,180.230 282.979,178.312 282.348 C 174.527 281.102,173.379 280.904,175.600 281.880 M229.400 282.000 C 228.520 282.407,228.070 282.741,228.400 282.741 C 228.730 282.741,229.720 282.407,230.600 282.000 C 231.480 281.593,231.930 281.259,231.600 281.259 C 231.270 281.259,230.280 281.593,229.400 282.000 M225.400 283.175 C 224.960 283.353,223.250 283.831,221.600 284.236 C 219.950 284.641,218.894 285.033,219.254 285.107 C 219.836 285.226,227.149 283.329,227.567 282.951 C 227.872 282.674,226.212 282.846,225.400 283.175 M185.400 284.800 C 185.840 284.989,186.650 285.144,187.200 285.144 C 188.112 285.144,188.129 285.113,187.400 284.800 C 186.960 284.611,186.150 284.456,185.600 284.456 C 184.688 284.456,184.671 284.487,185.400 284.800 M189.200 285.600 C 189.750 285.776,191.010 285.916,192.000 285.910 L 193.800 285.900 192.000 285.580 C 191.010 285.403,189.750 285.264,189.200 285.270 L 188.200 285.280 189.200 285.600 M214.200 285.600 L 212.600 285.886 214.400 285.903 C 215.390 285.913,216.650 285.776,217.200 285.600 C 218.545 285.169,216.606 285.169,214.200 285.600 M195.442 286.477 C 197.363 286.818,209.761 286.799,211.377 286.453 C 212.025 286.314,208.354 286.200,203.219 286.200 C 198.084 286.200,194.585 286.325,195.442 286.477 M96.800 358.534 C 96.800 369.342,96.866 370.468,97.633 372.804 C 99.887 379.671,105.486 384.701,112.600 386.249 C 117.662 387.351,177.863 386.951,176.045 385.828 C 175.500 385.491,173.299 381.478,172.348 379.086 C 168.459 369.308,169.670 356.654,175.251 348.738 C 175.663 348.154,176.000 347.479,176.000 347.238 C 176.000 346.924,164.838 346.800,136.400 346.800 L 96.800 346.800 96.800 358.534 M198.074 347.579 C 176.819 353.655,179.653 384.741,201.600 386.257 C 210.291 386.857,217.279 382.948,221.006 375.400 C 228.481 360.259,214.224 342.962,198.074 347.579 M230.400 346.988 C 230.400 347.091,230.788 347.856,231.262 348.688 C 234.598 354.542,235.659 357.600,236.364 363.400 C 236.825 367.201,236.028 374.384,234.810 377.400 C 233.817 379.858,231.838 383.903,231.171 384.841 C 230.747 385.437,230.400 386.121,230.400 386.362 C 230.400 386.990,288.553 386.973,292.523 386.344 C 301.459 384.926,308.243 378.152,309.568 369.323 C 310.296 364.472,310.142 347.340,309.367 347.043 C 308.633 346.761,230.400 346.707,230.400 346.988 " stroke="none" fill="#297dad" fill-rule="evenodd"></path><path id="path1" d="M201.200 187.176 C 200.870 187.403,200.013 187.591,199.295 187.594 C 198.577 187.597,197.677 187.764,197.295 187.965 C 196.913 188.166,195.539 188.822,194.242 189.423 C 181.732 195.219,180.098 213.552,191.328 222.124 C 193.019 223.415,194.150 224.031,197.000 225.214 C 199.142 226.102,205.486 226.674,206.124 226.036 C 206.364 225.796,207.143 225.600,207.856 225.600 C 208.569 225.600,209.264 225.420,209.400 225.200 C 209.536 224.980,209.969 224.800,210.362 224.800 C 212.391 224.800,217.948 220.196,219.864 216.927 C 222.419 212.567,223.466 204.958,222.033 201.157 C 219.315 193.947,213.274 188.325,207.325 187.469 C 203.090 186.860,201.754 186.796,201.200 187.176 M206.399 200.600 C 211.251 203.109,211.368 209.827,206.608 212.616 C 199.008 217.071,192.232 205.349,199.755 200.762 C 201.284 199.830,204.747 199.745,206.399 200.600 M124.194 216.300 C 124.460 219.080,125.000 222.345,125.601 224.800 C 126.176 227.149,127.631 232.152,127.987 233.000 C 128.171 233.440,128.730 234.880,129.229 236.200 C 132.909 245.943,140.530 257.165,148.545 264.643 C 151.668 267.556,158.862 273.200,159.453 273.200 C 159.609 273.200,160.052 273.485,160.437 273.833 C 161.478 274.776,169.281 278.844,173.800 280.801 C 176.055 281.777,183.011 283.846,187.000 284.726 C 196.759 286.880,212.120 286.700,221.200 284.325 C 222.850 283.893,225.100 283.303,226.200 283.013 C 230.877 281.779,239.463 278.085,242.672 275.925 C 243.592 275.306,244.455 274.800,244.590 274.800 C 245.489 274.800,254.382 268.011,258.821 263.937 C 264.875 258.379,273.866 245.099,276.855 237.300 C 277.045 236.805,277.380 235.950,277.600 235.400 C 278.560 233.001,278.748 232.452,279.521 229.800 C 280.933 224.955,281.712 221.431,282.175 217.800 C 282.287 216.920,282.496 215.614,282.640 214.897 L 282.901 213.594 259.611 213.697 L 236.321 213.800 235.332 216.936 C 233.219 223.639,228.923 229.609,223.200 233.795 C 220.380 235.858,215.498 238.400,214.357 238.400 C 213.967 238.400,213.536 238.580,213.400 238.800 C 213.264 239.020,212.634 239.200,212.000 239.200 C 211.366 239.200,210.753 239.353,210.637 239.540 C 209.893 240.744,193.759 240.028,192.973 238.756 C 192.852 238.560,192.476 238.400,192.137 238.400 C 188.253 238.400,177.589 229.831,174.466 224.200 C 174.100 223.540,173.665 222.940,173.500 222.867 C 173.335 222.793,173.200 222.566,173.200 222.362 C 173.200 221.999,171.896 218.883,171.167 217.505 C 170.965 217.123,170.800 216.437,170.800 215.979 C 170.800 213.445,172.355 213.600,146.954 213.600 L 123.936 213.600 124.194 216.300 " stroke="none" fill="#d3dbe2" fill-rule="evenodd"></path><path id="path2" d="M195.800 127.032 C 159.338 130.516,129.591 158.667,124.220 194.770 C 123.879 197.064,123.600 199.179,123.600 199.470 C 123.600 199.904,127.839 200.000,146.936 200.000 L 170.272 200.000 170.782 198.300 C 178.834 171.439,213.213 164.243,229.545 186.000 C 230.123 186.770,230.686 187.490,230.798 187.600 C 231.872 188.662,234.805 195.004,235.654 198.100 L 236.175 200.000 259.487 200.000 L 282.800 200.000 282.800 198.377 C 282.800 197.485,282.632 196.000,282.427 195.077 C 282.222 194.155,281.842 192.230,281.582 190.800 C 274.508 151.849,235.961 123.194,195.800 127.032 " stroke="none" fill="#fa5b43" fill-rule="evenodd"></path><path id="path3" d="M107.700 0.290 C 106.765 0.376,106.000 0.616,106.000 0.823 C 106.000 1.030,105.460 1.200,104.800 1.200 C 104.140 1.200,103.600 1.380,103.600 1.600 C 103.600 1.820,103.240 2.000,102.800 2.000 C 102.360 2.000,102.000 2.180,102.000 2.400 C 102.000 2.620,101.640 2.800,101.200 2.800 C 100.760 2.800,100.400 2.980,100.400 3.200 C 100.400 3.420,100.040 3.600,99.600 3.600 C 99.160 3.600,98.800 3.750,98.800 3.932 C 98.800 4.115,98.305 4.519,97.700 4.830 C 97.095 5.140,96.309 5.711,95.953 6.097 C 95.597 6.484,95.147 6.801,94.953 6.802 C 94.630 6.804,91.827 9.658,89.100 12.762 C 88.495 13.450,88.000 14.281,88.000 14.607 C 88.000 14.933,87.820 15.200,87.600 15.200 C 87.380 15.200,87.200 15.470,87.200 15.800 C 87.200 16.130,87.064 16.400,86.898 16.400 C 86.731 16.400,86.360 16.985,86.071 17.700 C 85.783 18.415,85.379 19.313,85.174 19.695 C 84.968 20.077,84.800 20.662,84.800 20.995 C 84.800 21.328,84.640 21.600,84.444 21.600 C 84.102 21.600,83.834 22.722,83.344 26.200 C 83.220 27.080,82.956 27.971,82.759 28.180 C 82.558 28.393,82.400 36.773,82.400 47.280 L 82.400 66.000 81.200 66.000 C 80.540 66.000,80.000 66.180,80.000 66.400 C 80.000 66.620,79.722 66.800,79.382 66.800 C 78.582 66.800,76.800 68.582,76.800 69.382 C 76.800 69.722,76.620 70.000,76.400 70.000 C 75.650 70.000,75.873 103.466,76.625 103.754 C 76.969 103.886,77.156 104.148,77.040 104.336 C 76.678 104.922,78.919 106.717,80.700 107.269 L 82.400 107.795 82.400 113.497 C 82.400 118.933,82.363 119.200,81.600 119.200 C 81.160 119.200,80.800 119.380,80.800 119.600 C 80.800 119.820,80.566 120.000,80.280 120.000 C 79.161 120.000,77.566 121.053,77.097 122.100 C 76.826 122.705,76.469 123.200,76.302 123.200 C 75.689 123.200,75.946 155.937,76.568 157.120 C 77.258 158.431,78.595 159.600,79.405 159.600 C 79.732 159.600,80.000 159.780,80.000 160.000 C 80.000 160.220,80.540 160.400,81.200 160.400 L 82.400 160.400 82.400 265.920 C 82.400 327.690,82.549 371.598,82.759 371.820 C 82.956 372.029,83.220 372.920,83.344 373.800 C 83.834 377.278,84.102 378.400,84.444 378.400 C 84.640 378.400,84.800 378.672,84.800 379.005 C 84.800 379.338,84.968 379.923,85.174 380.305 C 85.379 380.687,85.783 381.585,86.071 382.300 C 86.360 383.015,86.731 383.600,86.898 383.600 C 87.064 383.600,87.200 383.870,87.200 384.200 C 87.200 384.530,87.380 384.800,87.600 384.800 C 87.820 384.800,88.000 385.067,88.000 385.393 C 88.000 385.719,88.495 386.550,89.100 387.238 C 91.827 390.342,94.630 393.196,94.953 393.198 C 95.147 393.199,95.597 393.516,95.953 393.903 C 96.309 394.289,97.095 394.860,97.700 395.170 C 98.305 395.481,98.800 395.885,98.800 396.068 C 98.800 396.250,99.160 396.400,99.600 396.400 C 100.040 396.400,100.400 396.580,100.400 396.800 C 100.400 397.020,100.760 397.200,101.200 397.200 C 101.640 397.200,102.000 397.380,102.000 397.600 C 102.000 397.820,102.360 398.000,102.800 398.000 C 103.240 398.000,103.600 398.180,103.600 398.400 C 103.600 398.620,104.125 398.800,104.767 398.800 C 105.408 398.800,106.008 399.025,106.100 399.300 C 106.345 400.035,300.055 400.035,300.300 399.300 C 300.392 399.025,300.992 398.800,301.633 398.800 C 302.275 398.800,302.800 398.620,302.800 398.400 C 302.800 398.180,303.160 398.000,303.600 398.000 C 304.040 398.000,304.400 397.820,304.400 397.600 C 304.400 397.380,304.760 397.200,305.200 397.200 C 305.640 397.200,306.000 397.020,306.000 396.800 C 306.000 396.580,306.360 396.400,306.800 396.400 C 307.240 396.400,307.600 396.220,307.600 396.000 C 307.600 395.780,307.830 395.600,308.112 395.600 C 308.393 395.600,308.883 395.240,309.200 394.800 C 309.517 394.360,310.012 394.000,310.300 394.000 C 310.587 394.000,311.452 393.415,312.220 392.700 C 315.355 389.784,316.800 388.285,316.800 387.948 C 316.800 387.753,317.340 387.028,318.000 386.337 C 318.660 385.646,319.200 384.838,319.200 384.541 C 319.200 384.243,319.380 384.000,319.600 384.000 C 319.820 384.000,320.000 383.640,320.000 383.200 C 320.000 382.760,320.180 382.400,320.400 382.400 C 320.620 382.400,320.800 382.040,320.800 381.600 C 320.800 381.160,320.980 380.800,321.200 380.800 C 321.420 380.800,321.600 380.361,321.600 379.824 C 321.600 379.287,321.759 378.749,321.952 378.630 C 322.146 378.510,322.426 377.914,322.574 377.306 C 322.722 376.698,323.048 375.390,323.298 374.400 C 323.952 371.816,323.952 28.184,323.298 25.600 C 323.048 24.610,322.722 23.302,322.574 22.694 C 322.426 22.086,322.146 21.490,321.952 21.370 C 321.759 21.251,321.600 20.713,321.600 20.176 C 321.600 19.639,321.420 19.200,321.200 19.200 C 320.980 19.200,320.800 18.840,320.800 18.400 C 320.800 17.960,320.620 17.600,320.400 17.600 C 320.180 17.600,320.000 17.240,320.000 16.800 C 320.000 16.360,319.820 16.000,319.600 16.000 C 319.380 16.000,319.200 15.757,319.200 15.459 C 319.200 15.162,318.660 14.354,318.000 13.663 C 317.340 12.972,316.800 12.236,316.800 12.026 C 316.800 11.817,316.065 10.960,315.166 10.123 C 314.268 9.285,312.924 8.015,312.180 7.300 C 311.436 6.585,310.617 6.000,310.360 6.000 C 310.104 6.000,309.603 5.671,309.247 5.270 C 308.891 4.868,308.015 4.284,307.300 3.972 C 306.585 3.660,306.000 3.269,306.000 3.102 C 306.000 2.936,305.640 2.800,305.200 2.800 C 304.760 2.800,304.400 2.620,304.400 2.400 C 304.400 2.180,304.040 2.000,303.600 2.000 C 303.160 2.000,302.800 1.820,302.800 1.600 C 302.800 1.380,302.275 1.200,301.633 1.200 C 300.992 1.200,300.392 0.975,300.300 0.700 C 300.142 0.227,112.734 -0.172,107.700 0.290 M294.998 14.126 C 306.607 17.587,310.157 24.649,309.916 43.800 L 309.800 53.000 203.300 53.101 L 96.800 53.201 96.800 41.467 C 96.800 30.761,96.871 29.516,97.610 27.264 C 99.890 20.320,105.333 15.409,112.508 13.821 C 116.843 12.862,291.739 13.154,294.998 14.126 M200.169 27.608 C 198.086 28.639,196.800 30.840,196.800 33.374 C 196.800 39.224,203.266 42.068,207.620 38.134 C 213.369 32.941,207.149 24.153,200.169 27.608 M309.581 67.021 C 309.873 67.313,309.971 107.785,309.901 200.221 L 309.800 333.000 203.366 333.101 L 96.932 333.201 96.721 247.701 C 96.463 143.462,96.569 67.497,96.973 66.843 C 97.376 66.192,308.929 66.369,309.581 67.021 M127.000 87.624 C 122.290 89.931,122.371 93.049,127.399 103.009 C 132.629 113.369,134.805 115.047,139.552 112.379 C 144.119 109.812,144.052 106.978,139.194 97.254 C 134.027 86.909,131.895 85.226,127.000 87.624 M274.000 87.324 C 272.089 88.221,271.095 89.689,267.499 96.924 C 263.491 104.988,263.094 106.169,263.675 108.320 C 264.981 113.159,271.309 114.781,274.659 111.135 C 275.799 109.894,282.608 96.173,282.941 94.446 C 283.883 89.554,278.456 85.231,274.000 87.324 M113.906 114.310 C 110.799 115.745,109.363 120.039,110.960 123.120 C 112.328 125.758,120.174 132.717,122.107 133.007 C 126.156 133.614,129.600 130.811,129.600 126.908 C 129.600 124.033,129.116 123.252,124.528 118.716 C 119.388 113.634,117.273 112.756,113.906 114.310 M195.200 113.832 C 188.790 114.555,185.935 115.023,181.600 116.063 C 176.063 117.392,173.989 118.005,173.420 118.482 C 173.211 118.657,172.714 118.800,172.315 118.800 C 171.916 118.800,171.277 118.959,170.895 119.153 C 170.513 119.348,169.750 119.689,169.200 119.913 C 122.639 138.811,99.207 189.116,114.847 236.600 C 115.282 237.920,115.809 239.313,116.019 239.695 C 116.229 240.077,116.400 240.567,116.400 240.785 C 116.400 241.002,116.940 242.359,117.600 243.800 C 118.260 245.241,118.800 246.492,118.800 246.579 C 118.800 247.051,124.333 256.523,126.355 259.513 C 137.705 276.301,157.845 291.051,176.200 296.020 C 191.748 300.229,207.580 301.189,219.400 298.640 C 219.840 298.546,221.280 298.248,222.600 297.979 C 270.427 288.232,302.915 241.300,295.547 192.600 C 293.935 181.943,288.983 167.630,284.729 161.328 C 284.108 160.408,283.600 159.546,283.600 159.413 C 283.600 156.916,270.055 141.055,262.581 134.800 C 244.677 119.815,217.409 111.330,195.200 113.832 M287.000 114.329 C 285.175 115.196,277.797 122.630,277.197 124.207 C 275.261 129.300,280.168 134.527,285.296 132.834 C 286.733 132.360,292.917 126.638,295.016 123.840 C 299.017 118.507,293.069 111.450,287.000 114.329 M216.400 127.788 C 249.663 133.919,275.849 159.233,281.582 190.800 C 281.842 192.230,282.222 194.155,282.427 195.077 C 282.632 196.000,282.800 197.485,282.800 198.377 L 282.800 200.000 259.487 200.000 L 236.175 200.000 235.654 198.100 C 234.805 195.004,231.872 188.662,230.798 187.600 C 230.686 187.490,230.123 186.770,229.545 186.000 C 213.213 164.243,178.834 171.439,170.782 198.300 L 170.272 200.000 146.936 200.000 C 127.839 200.000,123.600 199.904,123.600 199.470 C 123.600 199.179,123.879 197.064,124.220 194.770 C 129.591 158.667,159.338 130.516,195.800 127.032 C 199.433 126.685,213.144 127.188,216.400 127.788 M208.142 187.434 C 214.976 189.196,218.985 192.999,222.533 201.088 C 223.118 202.423,223.047 210.816,222.437 212.431 C 219.977 218.938,215.641 223.534,210.200 225.400 C 206.205 226.770,202.249 227.162,199.828 226.427 C 199.153 226.222,197.792 225.819,196.805 225.532 C 183.295 221.599,178.945 202.972,189.153 192.765 C 194.339 187.580,201.218 185.648,208.142 187.434 M201.400 200.530 C 197.418 202.089,195.710 205.887,197.448 209.320 C 200.958 216.251,210.719 213.048,209.473 205.374 C 208.882 201.733,204.715 199.233,201.400 200.530 M170.705 214.300 C 170.926 214.905,171.348 216.210,171.643 217.200 C 176.497 233.519,195.987 243.714,212.593 238.620 C 216.216 237.508,221.296 235.114,222.400 233.998 C 222.510 233.886,223.302 233.272,224.159 232.632 C 228.387 229.478,235.200 219.408,235.200 216.313 C 235.200 215.987,235.398 215.151,235.640 214.457 L 236.080 213.194 259.522 213.297 L 282.964 213.400 282.850 215.600 C 281.901 233.955,270.111 255.310,253.108 269.470 C 244.440 276.688,228.610 283.807,217.400 285.528 C 215.860 285.764,213.409 286.147,211.954 286.379 C 210.499 286.610,206.663 286.800,203.431 286.800 C 184.983 286.800,167.443 280.662,153.179 269.214 C 142.983 261.032,133.131 247.957,129.205 237.400 C 129.041 236.960,128.711 236.150,128.470 235.600 C 127.706 233.850,126.103 228.696,125.422 225.800 C 124.134 220.320,124.031 219.742,123.759 216.490 L 123.485 213.200 146.894 213.200 L 170.303 213.200 170.705 214.300 M176.000 347.238 C 176.000 347.479,175.663 348.154,175.251 348.738 C 169.670 356.654,168.459 369.308,172.348 379.086 C 173.299 381.478,175.500 385.491,176.045 385.828 C 177.863 386.951,117.662 387.351,112.600 386.249 C 105.486 384.701,99.887 379.671,97.633 372.804 C 96.866 370.468,96.800 369.342,96.800 358.534 L 96.800 346.800 136.400 346.800 C 164.838 346.800,176.000 346.924,176.000 347.238 M207.816 347.412 C 222.469 351.175,228.056 369.221,217.912 380.023 C 205.442 393.301,183.600 384.842,183.600 366.735 C 183.600 353.720,195.476 344.244,207.816 347.412 M309.367 347.043 C 310.142 347.340,310.296 364.472,309.568 369.323 C 308.243 378.152,301.459 384.926,292.523 386.344 C 288.553 386.973,230.400 386.990,230.400 386.362 C 230.400 386.121,230.747 385.437,231.171 384.841 C 231.838 383.903,233.817 379.858,234.810 377.400 C 236.028 374.384,236.825 367.201,236.364 363.400 C 235.659 357.600,234.598 354.542,231.262 348.688 C 230.788 347.856,230.400 347.091,230.400 346.988 C 230.400 346.707,308.633 346.761,309.367 347.043 " stroke="none" fill="#040404" fill-rule="evenodd"></path><path id="path4" d="M97.200 144.444 L 97.200 221.690 103.142 215.633 L 109.083 209.576 109.373 206.288 C 109.532 204.480,109.829 200.930,110.031 198.400 C 110.234 195.870,110.587 192.720,110.816 191.400 C 111.044 190.080,111.333 188.280,111.457 187.400 C 111.581 186.520,111.844 185.629,112.041 185.420 C 112.238 185.211,112.400 184.594,112.400 184.048 C 112.400 183.503,112.580 182.504,112.800 181.828 C 113.020 181.153,113.661 179.167,114.225 177.416 C 116.446 170.519,120.850 161.248,124.047 156.738 C 124.461 156.154,124.800 155.571,124.800 155.442 C 124.800 155.153,126.702 152.586,130.611 147.600 C 136.691 139.845,146.919 130.939,154.876 126.469 C 155.654 126.033,156.720 125.433,157.245 125.138 C 157.770 124.842,158.290 124.502,158.400 124.382 C 158.631 124.131,163.834 121.607,166.200 120.600 C 167.080 120.225,168.160 119.760,168.600 119.565 C 170.100 118.904,176.195 116.850,178.000 116.398 C 183.430 115.039,186.456 114.407,190.000 113.892 C 193.859 113.332,212.487 113.327,216.400 113.885 C 224.332 115.016,233.167 117.440,239.509 120.226 C 243.009 121.764,249.411 124.994,249.533 125.284 C 249.607 125.458,249.839 125.600,250.050 125.600 C 250.417 125.600,259.985 131.846,260.400 132.356 C 260.510 132.491,261.860 133.620,263.400 134.865 C 267.335 138.047,274.151 145.122,277.200 149.192 C 277.750 149.926,278.391 150.723,278.624 150.963 C 279.268 151.627,282.938 157.177,284.007 159.105 C 284.726 160.401,285.295 160.901,286.377 161.187 C 288.932 161.864,295.980 162.860,296.395 162.603 C 296.660 162.439,296.789 155.434,296.768 142.276 C 296.751 131.234,296.636 122.470,296.513 122.800 C 296.018 124.130,287.025 132.796,285.679 133.240 C 282.408 134.319,278.464 132.815,277.031 129.942 C 276.334 128.544,276.157 124.000,276.800 124.000 C 277.020 124.000,277.200 123.758,277.200 123.462 C 277.200 122.641,284.380 115.249,286.235 114.160 C 289.753 112.095,294.303 113.430,296.218 117.090 C 296.730 118.069,296.787 115.206,296.699 92.800 L 296.600 67.400 196.900 67.299 L 97.200 67.198 97.200 144.444 M133.623 87.528 C 136.266 89.205,143.333 103.174,143.333 106.721 C 143.333 113.483,134.741 116.263,130.880 110.751 C 128.085 106.760,123.106 95.684,123.081 93.400 C 123.018 87.690,128.800 84.470,133.623 87.528 M279.952 87.221 C 284.848 89.973,284.774 92.858,279.542 103.187 C 274.190 113.752,271.742 115.557,266.538 112.779 C 261.945 110.327,261.964 106.919,266.625 97.512 C 272.162 86.339,274.782 84.315,279.952 87.221 M119.916 113.965 C 121.529 114.796,128.763 121.983,129.607 123.593 C 132.522 129.152,125.958 135.706,120.208 132.977 C 118.796 132.307,111.263 124.817,110.427 123.252 C 107.376 117.541,114.095 110.965,119.916 113.965 " stroke="none" fill="#04c3db" fill-rule="evenodd"></path></g></svg>