<?xml version="1.0" standalone="no"?>
<!DOCTYPE svg PUBLIC "-//W3C//DTD SVG 20010904//EN"
 "http://www.w3.org/TR/2001/REC-SVG-20010904/DTD/svg10.dtd">
<svg version="1.0" xmlns="http://www.w3.org/2000/svg"
 width="100.000000pt" height="100.000000pt" viewBox="0 0 100.000000 100.000000"
 preserveAspectRatio="xMidYMid meet">

<g transform="translate(0.000000,100.000000) scale(0.100000,-0.100000)"
fill="#000000" stroke="none">
<path d="M386 944 c-170 -41 -315 -201 -341 -377 l-7 -47 139 0 139 0 21 49
c62 147 272 144 329 -4 l17 -45 138 0 c156 0 148 -5 128 80 -27 118 -133 256
-236 309 -95 48 -218 61 -327 35z"/>
<path d="M451 586 c-87 -48 -50 -186 49 -186 51 0 100 49 100 99 0 75 -83 124
-149 87z"/>
<path d="M45 433 c20 -138 122 -279 247 -341 125 -63 277 -66 403 -8 115 52
225 190 254 316 20 85 28 80 -128 80 l-139 0 -12 -35 c-51 -156 -270 -165
-333 -14 l-21 49 -139 0 -139 0 7 -47z"/>
</g>
</svg>
