<?xml version="1.0" encoding="UTF-8"?>
<svg version="1.1" xmlns="http://www.w3.org/2000/svg" width="795" height="800">
<path d="M0 0 C262.35 0 524.7 0 795 0 C795 264 795 528 795 800 C532.65 800 270.3 800 0 800 C0 536 0 272 0 0 Z " fill="#FDFEFD" transform="translate(0,0)"/>
<path d="M0 0 C64.35 0 128.7 0 195 0 C196.98 6.93 198.96 13.86 201 21 C207.81186176 39.47284545 215.76164165 57.44233535 228 73 C229.29527017 74.8307892 230.5868503 76.66419384 231.875 78.5 C235.47572796 83.45895933 239.44614578 87.95269539 243.62109375 92.43359375 C245.68579625 94.66103143 247.66412032 96.93178461 249.625 99.25 C253.11608728 103.23981403 256.91478454 106.62921014 261 110 C261.49967285 110.42265137 261.9993457 110.84530273 262.51416016 111.28076172 C291.51708463 135.76662772 326.48703183 152.02822854 364 158 C365.52500122 158.2638147 365.52500122 158.2638147 367.08081055 158.53295898 C376.61595748 160.0694314 385.93259149 160.35983137 395.5625 160.3125 C396.75028549 160.30926727 396.75028549 160.30926727 397.96206665 160.30596924 C410.53161087 160.25121377 422.66942481 159.60465557 435 157 C435.97404785 156.80132324 436.9480957 156.60264648 437.95166016 156.39794922 C458.84946013 152.04627819 478.22261855 145.13056271 497 135 C497.59329102 134.68595215 498.18658203 134.3719043 498.79785156 134.04833984 C523.36651617 120.97889319 545.18298698 101.86070497 561.79931641 79.60205078 C562.87384124 78.16833139 563.97250432 76.75277695 565.07421875 75.33984375 C582.02604686 53.09271842 592.69416912 26.78804655 600 0 C664.35 0 728.7 0 795 0 C795 116.49 795 232.98 795 353 C532.65 353 270.3 353 0 353 C0 236.51 0 120.02 0 0 Z " fill="#09C001" transform="translate(0,447)"/>
<path d="M0 0 C103.02419056 -0.12099405 103.02419056 -0.12099405 146.21484375 -0.14648438 C156.09879572 -0.15235694 165.98274756 -0.15841808 175.86669922 -0.16479492 C177.72458346 -0.16598179 177.72458346 -0.16598179 179.62000072 -0.16719264 C199.5492993 -0.18019836 219.4785716 -0.20382624 239.40785466 -0.23145839 C259.89966208 -0.259631 280.39145584 -0.27620116 300.88328183 -0.28226548 C313.50173479 -0.28635749 326.12011346 -0.29922484 338.73854353 -0.3237494 C347.42156582 -0.33975342 356.10455038 -0.34436767 364.78758632 -0.34050413 C369.7780558 -0.33860508 374.76839659 -0.34126564 379.75884247 -0.35761642 C444.04168555 -0.55738966 505.00695921 9.64405129 564 36 C564.78213867 36.34627441 565.56427734 36.69254883 566.37011719 37.04931641 C595.57508666 50.06526434 623.38876632 67.61846615 648 88 C648.54414551 88.44794922 649.08829102 88.89589844 649.64892578 89.35742188 C656.74982522 95.22112214 663.60970385 101.30905071 670.34375 107.58984375 C672.06159995 109.14853996 673.82878594 110.65520541 675.6484375 112.09375 C677.76430836 113.808941 679.39905268 115.47057956 681.125 117.5625 C684.04988891 120.99606524 687.14984214 124.15941271 690.375 127.3125 C694.81738027 131.68313153 698.83031822 136.27386063 702.70703125 141.15234375 C704.69228286 143.61784363 706.7432828 146.00402338 708.83178711 148.38183594 C738.89008241 182.87336442 761.10085397 226.03323556 776 269 C776.5256958 270.51327881 776.5256958 270.51327881 777.06201172 272.05712891 C782.46656135 287.81230056 786.56219981 303.70977036 790 320 C790.17402344 320.79792969 790.34804688 321.59585937 790.52734375 322.41796875 C790.76130859 323.49498047 790.76130859 323.49498047 791 324.59375 C791.13019531 325.18994141 791.26039063 325.78613281 791.39453125 326.40039062 C793.15720157 335.518503 793.43657146 343.4217148 794 353 C729.98 353 665.96 353 600 353 C597.69 345.41 595.38 337.82 593 330 C585.23707442 309.02358407 574.88030149 289.57031122 561 272 C560.3503125 271.14535156 559.700625 270.29070312 559.03125 269.41015625 C548.18964942 255.54541705 535.23366418 243.31412698 521 233 C519.94554687 232.22398437 518.89109375 231.44796875 517.8046875 230.6484375 C503.54191128 220.45072772 488.14776671 212.75029592 472 206 C470.97132813 205.56494141 470.97132813 205.56494141 469.921875 205.12109375 C450.68016151 197.15502437 428.59935498 192.90829595 407.78515625 192.796875 C406.50323647 192.78832489 406.50323647 192.78832489 405.19541931 192.77960205 C403.3945334 192.77021598 401.59363081 192.76364375 399.79272461 192.75976562 C397.1004251 192.75013565 394.40891555 192.719082 391.71679688 192.6875 C380.16300449 192.61666992 369.31609117 193.69373334 358 196 C356.99364502 196.19883789 355.98729004 196.39767578 354.95043945 196.60253906 C313.7611937 205.13058957 279.31264507 225.23105444 249 254 C248.3709375 254.57621094 247.741875 255.15242187 247.09375 255.74609375 C223.82965645 277.74821997 206.84454204 310.36800671 197.95703125 340.8046875 C196.73081767 344.89873936 195.3514755 348.94557349 194 353 C129.98 353 65.96 353 0 353 C0 236.51 0 120.02 0 0 Z " fill="#09C001" transform="translate(0,0)"/>
<path d="M0 0 C1.01639053 0.00323273 1.01639053 0.00323273 2.05331421 0.00653076 C36.47874893 0.18176505 65.72465221 13.09661555 91.18066406 35.95947266 C92.4197733 37.07210121 93.67287662 38.16912532 94.9296875 39.26171875 C110.50007364 53.63686778 122.51491397 75.9189835 127.6875 96.3125 C127.88069824 97.06128418 128.07389648 97.81006836 128.27294922 98.58154297 C136.92400169 133.5035466 131.0193931 169.39047308 112.93408203 200.27050781 C98.16265049 224.46718886 76.1501382 241.62690854 50.6875 253.3125 C49.63175781 253.7971875 48.57601562 254.281875 47.48828125 254.78125 C37.92995683 258.79550148 27.86035629 260.57487227 17.6875 262.3125 C16.00140625 262.60447266 16.00140625 262.60447266 14.28125 262.90234375 C-23.58285586 267.22379061 -57.51287597 254.3578504 -86.9140625 231.26953125 C-91.53854737 227.36818011 -95.47893494 222.98109903 -99.3125 218.3125 C-100.15941406 217.30316406 -101.00632812 216.29382813 -101.87890625 215.25390625 C-120.93287088 192.12749213 -131.47491293 164.0949762 -131.55273438 134.13696289 C-131.56234079 131.91187698 -131.59337503 129.68775666 -131.625 127.46289062 C-131.72192785 114.44212963 -129.9840126 101.87115982 -125.75 89.5 C-125.50024414 88.76555664 -125.25048828 88.03111328 -124.99316406 87.27441406 C-118.83498942 70.03881284 -108.94173003 52.6994825 -95.3125 40.3125 C-94.549375 39.52875 -93.78625 38.745 -93 37.9375 C-67.19766088 12.73521528 -36.1844752 -0.15764693 0 0 Z " fill="#09C001" transform="translate(397.3125,268.6875)"/>
<path d="M0 0 C0.33 0 0.66 0 1 0 C1 115.17 1 230.34 1 349 C-124.07 349 -249.14 349 -378 349 C-378 348.67 -378 348.34 -378 348 C-377.0104834 347.95625244 -377.0104834 347.95625244 -376.00097656 347.91162109 C-291.18900027 343.81435423 -208.07879483 311.79354118 -142.77783203 257.46923828 C-141.15488305 256.12799865 -139.5184976 254.8070972 -137.87109375 253.49609375 C-132.61887099 249.29577652 -127.78238583 244.91446008 -123.09375 240.09375 C-121.23461715 238.23461715 -119.33313544 236.55315486 -117.3125 234.875 C-108.01060901 226.87537375 -99.81283331 217.28074936 -92.1875 207.70703125 C-90.23745347 205.29384866 -88.22013177 202.95735869 -86.17407227 200.62573242 C-78.34726159 191.63970611 -71.66422373 181.86371423 -65 172 C-64.56945312 171.36449219 -64.13890625 170.72898437 -63.6953125 170.07421875 C-53.22211378 154.50500052 -44.00517017 137.96504877 -36 121 C-35.4730957 119.89035889 -35.4730957 119.89035889 -34.93554688 118.75830078 C-17.20756468 81.16841262 -5.79795416 41.1197012 0 0 Z " fill="#FDFEFD" transform="translate(794,451)"/>
<path d="M0 0 C126.72 0 253.44 0 384 0 C384 0.33 384 0.66 384 1 C383.175 1.0501123 382.35 1.10022461 381.5 1.15185547 C359.37171071 2.51326389 337.77920262 4.66703979 316 9 C315.02869141 9.19013672 314.05738281 9.38027344 313.05664062 9.57617188 C285.58147537 15.07120493 258.37228545 24.10809091 233 36 C232.01531738 36.45342773 231.03063477 36.90685547 230.01611328 37.37402344 C200.55557414 50.96700451 173.38756354 67.76096333 148 88 C146.50146484 89.17949219 146.50146484 89.17949219 144.97265625 90.3828125 C139.25223675 94.96243098 133.83592663 99.82193056 128.50097656 104.84008789 C126.20290465 106.99786633 123.89827927 109.08085098 121.4296875 111.04296875 C99.51734372 128.69262186 81.54167803 153.75817638 66 177 C65.53948242 177.68610352 65.07896484 178.37220703 64.60449219 179.07910156 C57.93680878 189.05492782 51.86127584 199.25893344 46.17773438 209.82519531 C45.06970808 211.87127703 43.93736821 213.90157524 42.796875 215.9296875 C20.12151639 256.75553564 6.62679326 303.80990605 1 350 C0.67 350 0.34 350 0 350 C0 234.5 0 119 0 0 Z " fill="#FEFEFD" transform="translate(0,0)"/>
<path d="M0 0 C0.33 0 0.66 0 1 0 C1.12004395 0.77786865 1.24008789 1.5557373 1.36376953 2.35717773 C13.89195386 82.64716434 46.41870147 166.00275186 106.31640625 223.31396484 C108.03932129 225.03937831 109.60664086 226.83996746 111.18359375 228.69921875 C114.96723065 233.0486843 119.03471869 237.01003783 123.25 240.9375 C123.99652832 241.63625244 124.74305664 242.33500488 125.51220703 243.05493164 C131.15543066 248.29907176 136.95756921 253.2203063 143 258 C144.75086684 259.45729249 146.50084119 260.91565783 148.25 262.375 C187.87197511 294.76214941 234.33804484 317.80428735 283 333 C283.72074707 333.22768066 284.44149414 333.45536133 285.18408203 333.68994141 C314.70388652 342.93288731 345.31285647 346.44052651 376 349 C376 349.33 376 349.66 376 350 C251.92 350 127.84 350 0 350 C0 234.5 0 119 0 0 Z " fill="#FDFEFD" transform="translate(0,450)"/>
<path d="M0 0 C0.99 0.33 1.98 0.66 3 1 C3 3.64 3 6.28 3 9 C3.99 9 4.98 9 6 9 C5.979375 7.700625 5.95875 6.40125 5.9375 5.0625 C5.91600546 3.70834367 5.92851801 2.35243917 6 1 C7.79061272 -0.79061272 10.39677742 -0.17289466 12.8125 -0.1875 C13.87082031 -0.20167969 14.92914062 -0.21585938 16.01953125 -0.23046875 C18.9204626 -0.00615034 20.54818353 0.49803979 23 2 C23.66 1.34 24.32 0.68 25 0 C28.95158471 -0.34361606 31.60535554 -0.08901197 35 2 C35.33 1.34 35.66 0.68 36 0 C37.65 0 39.3 0 41 0 C41.495 1.485 41.495 1.485 42 3 C40.68 3.33 39.36 3.66 38 4 C38 6.97 38 9.94 38 13 C36.68 12.67 35.36 12.34 34 12 C34 11.01 34 10.02 34 9 C33.67 10.32 33.34 11.64 33 13 C28.45194365 13.17835515 25.1205746 12.99785435 21 11 C20.67 11.66 20.34 12.32 20 13 C18.02 13 16.04 13 14 13 C14 14.65 14 16.3 14 18 C12.68 18 11.36 18 10 18 C9.67 16.02 9.34 14.04 9 12 C8.67 12.33 8.34 12.66 8 13 C2.63845583 13.46622123 2.63845583 13.46622123 0.3203125 11.7734375 C-1.37314905 9.49878797 -1.3414228 8.18168001 -1.25 5.375 C-1.23453125 4.57835937 -1.2190625 3.78171875 -1.203125 2.9609375 C-1 1 -1 1 0 0 Z " fill="#D2D2D2" transform="translate(732,763)"/>
<path d="M0 0 C64.35 0 128.7 0 195 0 C195.33 2.64 195.66 5.28 196 8 C195.67 7.34 195.34 6.68 195 6 C194.34 6 193.68 6 193 6 C193 4.68 193 3.36 193 2 C130.3 2 67.6 2 3 2 C3 6.62 3 11.24 3 16 C3.66 16 4.32 16 5 16 C5 19.63 5 23.26 5 27 C4.67 27 4.34 27 4 27 C3.32936905 23.06316446 2.66417499 19.12542943 2 15.1875 C1.80921875 14.06794922 1.6184375 12.94839844 1.421875 11.79492188 C1.24140625 10.72177734 1.0609375 9.64863281 0.875 8.54296875 C0.70742187 7.55321045 0.53984375 6.56345215 0.3671875 5.54370117 C-0 3 -0 3 0 0 Z " fill="#24AF1E" transform="translate(0,447)"/>
<path d="M0 0 C2.91340833 2.91340833 3.52059782 6.50959237 4.625 10.375 C4.85445312 11.14328125 5.08390625 11.9115625 5.3203125 12.703125 C6.38977785 16.38259506 7 19.10175248 7 23 C71.02 23 135.04 23 201 23 C201.33 21.68 201.66 20.36 202 19 C202 20.98 202 22.96 202 25 C176.60970093 25.02333147 151.21940346 25.0409804 125.82909584 25.05181217 C114.04068265 25.0569746 102.25227611 25.06401629 90.46386719 25.07543945 C80.19244583 25.08538791 69.92102929 25.09185382 59.64960325 25.09408849 C54.20795113 25.09539532 48.76631279 25.09847945 43.32466507 25.10573006 C38.20793717 25.11249281 33.09122879 25.11461643 27.97449684 25.11310768 C26.09186891 25.11338389 24.20924036 25.11538751 22.32661629 25.11920547 C19.76554087 25.12414669 17.20454011 25.12299668 14.64346313 25.12025452 C13.8905539 25.12316736 13.13764467 25.1260802 12.36192 25.12908131 C7.22824242 25.11412121 7.22824242 25.11412121 5 24 C3.62902148 20.43545584 3.92756846 16.76644005 4 13 C3.34 13 2.68 13 2 13 C2 11.02 2 9.04 2 7 C1.34 7 0.68 7 0 7 C0 4.69 0 2.38 0 0 Z " fill="#DFFEDC" transform="translate(593,330)"/>
<path d="M0 0 C0.99 0.495 0.99 0.495 2 1 C1.69230293 2.81332154 1.37870936 4.62564345 1.0625 6.4375 C0.88847656 7.44683594 0.71445313 8.45617187 0.53515625 9.49609375 C0 12 0 12 -1 13 C-3.50413517 13.09773112 -5.98066191 13.12995681 -8.48524475 13.12025452 C-9.27830833 13.12110894 -10.07137192 13.12196337 -10.88846773 13.12284368 C-13.56637396 13.1245009 -16.24421861 13.11897319 -18.92211914 13.11352539 C-20.83357237 13.11324354 -22.74502571 13.1134012 -24.65647888 13.1139679 C-29.86287459 13.11425597 -35.06924748 13.10835761 -40.27563787 13.10139394 C-45.71024159 13.09516208 -51.14484577 13.09455674 -56.57945251 13.09336853 C-66.87838758 13.09025472 -77.17731208 13.08204066 -87.47624248 13.07201904 C-99.19792757 13.06085945 -110.91961315 13.05534784 -122.64130223 13.05032361 C-146.76087402 13.03985808 -170.88043642 13.02225768 -195 13 C-194.67 10.36 -194.34 7.72 -194 5 C-193.67 5 -193.34 5 -193 5 C-193 6.98 -193 8.96 -193 11 C-129.97 11 -66.94 11 -2 11 C-2 9.68 -2 8.36 -2 7 C-1.34 7 -0.68 7 0 7 C0 4.69 0 2.38 0 0 Z " fill="#24AE1E" transform="translate(195,340)"/>
<path d="M0 0 C2 0.9375 2 0.9375 4 3 C4.36475845 6.02534949 4.22893297 8.96663814 4 12 C2.23537317 8.91190305 2 7.76687864 2 4 C-62.35 4 -126.7 4 -193 4 C-193 3.34 -193 2.68 -193 2 C-192.01140519 1.99576806 -191.02281038 1.99153612 -190.00425816 1.98717594 C-165.98639012 1.88413429 -141.96855301 1.77540573 -117.95073795 1.66066074 C-106.33606552 1.60530435 -94.72139002 1.55181846 -83.10668945 1.50268555 C-72.98724557 1.45987323 -62.86782453 1.41360282 -52.74841589 1.36312145 C-47.38673359 1.33649665 -42.02505589 1.31164307 -36.66334724 1.29092598 C-31.62293232 1.27139582 -26.58256097 1.24726312 -21.54218483 1.21950912 C-19.68655943 1.21011943 -17.83092445 1.20245111 -15.97528458 1.19658089 C-13.45324708 1.18835214 -10.93131627 1.1740849 -8.40931702 1.15821838 C-7.66516779 1.15724028 -6.92101855 1.15626217 -6.15431935 1.15525442 C-2.79116062 1.42291694 -2.79116062 1.42291694 0 0 Z " fill="#E1FEDF" transform="translate(193,443)"/>
<path d="M0 0 C0.33 0 0.66 0 1 0 C1 3.3 1 6.6 1 10 C-3.30120905 12.11612784 -7.19360623 12.26484758 -11.89033508 12.20254517 C-12.67864926 12.20017046 -13.46696344 12.19779576 -14.27916592 12.1953491 C-16.9171317 12.1849433 -19.55476033 12.16006981 -22.19262695 12.13525391 C-24.08496143 12.12482645 -25.977301 12.11529147 -27.86964417 12.10658264 C-33.00563451 12.08041432 -38.14146402 12.04174748 -43.27735543 12.00085878 C-48.64516271 11.96024191 -54.01303184 11.93108868 -59.38090515 11.90072632 C-69.54518472 11.84148856 -79.70936638 11.77192141 -89.87355345 11.69865549 C-101.44534826 11.61574521 -113.01720503 11.54433134 -124.58908141 11.47388959 C-148.39281209 11.32873068 -172.1964283 11.16911349 -196 11 C-196 10.34 -196 9.68 -196 9 C-131.98 8.67 -67.96 8.34 -2 8 C-1.34 5.36 -0.68 2.72 0 0 Z " fill="#E1FEDE" transform="translate(196,344)"/>
<path d="M0 0 C64.35 0 128.7 0 195 0 C194.67 1.32 194.34 2.64 194 4 C194 3.01 194 2.02 194 1 C98.465 1.495 98.465 1.495 1 2 C1 3.98 1 5.96 1 8 C0.34 8 -0.32 8 -1 8 C-1.33 8.66 -1.66 9.32 -2 10 C-1.125 2.25 -1.125 2.25 0 0 Z " fill="#36A931" transform="translate(600,447)"/>
<path d="M0 0 C1.32 0 2.64 0 4 0 C4 5.61 4 11.22 4 17 C3.67 17 3.34 17 3 17 C3 11.72 3 6.44 3 1 C2.34 1 1.68 1 1 1 C1 6.28 1 11.56 1 17 C-2.55353929 18.1845131 -5.27013478 18.26641894 -9 18 C-10.9375 16.9375 -10.9375 16.9375 -12 15 C-12.36528977 11.5906288 -12.6140629 9.11976176 -10.9375 6.0625 C-7.95126663 4.42488815 -5.33436766 4.75750053 -2 5 C-1.34 5.33 -0.68 5.66 0 6 C0 4.02 0 2.04 0 0 Z " fill="#E9E9E9" transform="translate(726,758)"/>
<path d="M0 0 C0 0.33 0 0.66 0 1 C-4.5206665 1.02468857 -9.0412939 1.04285449 -13.56201172 1.05493164 C-15.10043013 1.05996552 -16.63884375 1.06679308 -18.17724609 1.07543945 C-20.38640526 1.08754639 -22.59550126 1.09323769 -24.8046875 1.09765625 C-25.49432587 1.10281754 -26.18396423 1.10797882 -26.89450073 1.11329651 C-31.77225659 1.11387171 -31.77225659 1.11387171 -34 0 C-35.52367959 -0.09572667 -37.05144272 -0.13074062 -38.578125 -0.1328125 C-39.49207031 -0.13410156 -40.40601563 -0.13539063 -41.34765625 -0.13671875 C-42.30542969 -0.13285156 -43.26320313 -0.12898437 -44.25 -0.125 C-45.19230469 -0.12886719 -46.13460937 -0.13273438 -47.10546875 -0.13671875 C-51.87919367 -0.13002348 -56.29253571 0.17109039 -61 1 C-65.36010952 1.30110999 -69.72869702 1.4399822 -74.09570312 1.60546875 C-74.96775391 1.64285156 -75.83980469 1.68023437 -76.73828125 1.71875 C-77.92997925 1.76418945 -77.92997925 1.76418945 -79.14575195 1.81054688 C-81.01481865 1.80429468 -81.01481865 1.80429468 -82 3 C-83.4887186 3.08669432 -84.981445 3.10703494 -86.47265625 3.09765625 C-87.37177734 3.09443359 -88.27089844 3.09121094 -89.19726562 3.08789062 C-90.14279297 3.07951172 -91.08832031 3.07113281 -92.0625 3.0625 C-93.01189453 3.05798828 -93.96128906 3.05347656 -94.93945312 3.04882812 C-97.29303065 3.0370011 -99.64648477 3.02052025 -102 3 C-102 2.67 -102 2.34 -102 2 C-67.99322272 -2.2648896 -34.13964675 -3.69715069 0 0 Z " fill="#28BC23" transform="translate(440,2)"/>
<path d="M0 0 C7 0 7 0 9 1.5 C10.50371778 5.25929446 9.72530452 8.04379351 9 12 C7.02 12 5.04 12 3 12 C3 13.65 3 15.3 3 17 C1.68 17 0.36 17 -1 17 C-0.67 11.39 -0.34 5.78 0 0 Z " fill="#E8E8E8" transform="translate(743,764)"/>
<path d="M0 0 C0.495 0.99 0.495 0.99 1 2 C0.67 2.66 0.34 3.32 0 4 C-0.99 4 -1.98 4 -3 4 C-3.66 5.65 -4.32 7.3 -5 9 C-5.66 8.67 -6.32 8.34 -7 8 C-7.45439453 8.72316406 -7.45439453 8.72316406 -7.91796875 9.4609375 C-10.55027414 13.42964409 -12.25455043 15.66153987 -17 17 C-18.34050052 17.65213539 -19.67661368 18.31379969 -21 19 C-21 19.66 -21 20.32 -21 21 C-21.66 21.185625 -22.32 21.37125 -23 21.5625 C-25.91147417 22.95758137 -27.63606132 24.34648768 -30 26.5 C-32.85838306 29.10394366 -35.20602045 30.93294325 -39 32 C-37.35812676 30.30339765 -35.692484 28.64579479 -34 27 C-33.08154297 26.10474609 -33.08154297 26.10474609 -32.14453125 25.19140625 C-24.04087968 17.60409354 -15.05463547 11.15408096 -6.13134766 4.57470703 C-4.08029116 3.05932165 -2.03823486 1.53257251 0 0 Z " fill="#24B720" transform="translate(169,71)"/>
<path d="M0 0 C0.33 0 0.66 0 1 0 C1.69700172 4.10712581 2.39062522 8.21480451 3.08129883 12.32299805 C3.31607744 13.71670439 3.55173381 15.11026319 3.78833008 16.50366211 C5.05815116 23.98567341 6.27187922 31.44260843 7 39 C6.34 39 5.68 39 5 39 C5 36.36 5 33.72 5 31 C3.35 31 1.7 31 0 31 C0 20.77 0 10.54 0 0 Z " fill="#DFFADE" transform="translate(0,450)"/>
<path d="M0 0 C0.33 0 0.66 0 1 0 C1 2.64 1 5.28 1 8 C0.34 8 -0.32 8 -1 8 C-1.66 14.27 -2.32 20.54 -3 27 C-3.66 27 -4.32 27 -5 27 C-5 37.23 -5 47.46 -5 58 C-4.01 58.33 -3.02 58.66 -2 59 C-2.33 62.63 -2.66 66.26 -3 70 C-7.53917323 63.19124015 -6.21959952 53.7680237 -6.24023438 45.82446289 C-6.24984079 43.59937698 -6.28087503 41.37525666 -6.3125 39.15039062 C-6.41188643 25.61863275 -4.3613435 12.86750989 0 0 Z " fill="#30B92C" transform="translate(272,357)"/>
<path d="M0 0 C1.99954746 -0.04254356 4.00041636 -0.04080783 6 0 C6.33 0.33 6.66 0.66 7 1 C8.55948542 1.15686249 10.12542668 1.25076639 11.69140625 1.31640625 C13.10776367 1.37924805 13.10776367 1.37924805 14.55273438 1.44335938 C16.04256836 1.50233398 16.04256836 1.50233398 17.5625 1.5625 C19.05813477 1.62727539 19.05813477 1.62727539 20.58398438 1.69335938 C23.0558415 1.79980298 25.5278031 1.90181928 28 2 C28 2.33 28 2.66 28 3 C28.57443848 3.02505615 29.14887695 3.0501123 29.74072266 3.07592773 C32.36899721 3.19269875 34.99698395 3.31505419 37.625 3.4375 C38.52863281 3.47681641 39.43226563 3.51613281 40.36328125 3.55664062 C44.98216146 3.77578458 49.45153636 4.1008851 54 5 C54 5.66 54 6.32 54 7 C42.32793033 6.61003454 30.74149727 5.77728226 19.125 4.5625 C17.31660645 4.37917114 17.31660645 4.37917114 15.47167969 4.19213867 C14.32860352 4.06814697 13.18552734 3.94415527 12.0078125 3.81640625 C10.99348145 3.70756104 9.97915039 3.59871582 8.93408203 3.48657227 C5.80536126 2.96772217 2.97850454 2.07697183 0 1 C0 0.67 0 0.34 0 0 Z " fill="#2CBB28" transform="translate(330,793)"/>
<path d="M0 0 C6.58388645 0.59893026 13.09240134 1.43194391 19.625 2.4375 C31.36928517 4.19026597 43.16160344 5.13905381 55 6 C55 6.33 55 6.66 55 7 C50.64007129 7.04945386 46.28029138 7.08574488 41.92016602 7.10986328 C40.43706417 7.11991821 38.95398212 7.13356404 37.47094727 7.15087891 C35.33865469 7.17515006 33.20662431 7.18648799 31.07421875 7.1953125 C29.14968872 7.21102295 29.14968872 7.21102295 27.1862793 7.22705078 C24 7 24 7 21 5 C17.80193335 4.5396236 17.80193335 4.5396236 14.3125 4.375 C13.13300781 4.30023437 11.95351563 4.22546875 10.73828125 4.1484375 C9.38283203 4.07496094 9.38283203 4.07496094 8 4 C8 3.34 8 2.68 8 2 C5.36 1.67 2.72 1.34 0 1 C0 0.67 0 0.34 0 0 Z " fill="#D9FCD8" transform="translate(321,793)"/>
<path d="M0 0 C2.07762924 0.00536918 4.15504324 0.00002166 6.23266602 -0.00634766 C12.73508102 -0.00926707 19.08730185 0.08790072 25.51586914 1.13037109 C25.51586914 1.46037109 25.51586914 1.79037109 25.51586914 2.13037109 C10.00586914 2.13037109 -5.50413086 2.13037109 -21.48413086 2.13037109 C-21.48413086 2.79037109 -21.48413086 3.45037109 -21.48413086 4.13037109 C-23.46980794 4.35823568 -25.45548503 4.58610026 -27.44116211 4.81396484 C-29.67809479 5.10207845 -29.67809479 5.10207845 -32.48413086 6.13037109 C-33.47413086 5.47037109 -34.46413086 4.81037109 -35.48413086 4.13037109 C-33.50662408 3.64439957 -31.52701436 3.16698352 -29.54663086 2.69287109 C-27.8934082 2.29261719 -27.8934082 2.29261719 -26.20678711 1.88427734 C-17.48404399 0.11776169 -8.8796176 -0.02730574 0 0 Z " fill="#1CB317" transform="translate(395.484130859375,268.86962890625)"/>
<path d="M0 0 C0.66 0 1.32 0 2 0 C3.95591714 4.82459562 4.40568958 9.37374628 4.75390625 14.51171875 C4.92008862 17.12913611 4.92008862 17.12913611 6 20 C6.23302974 23.70419376 6.18518078 27.41424762 6.1875 31.125 C6.19974609 32.13304687 6.21199219 33.14109375 6.22460938 34.1796875 C6.23677202 40.43939499 5.59279123 45.94361595 4 52 C3.67 52 3.34 52 3 52 C3.02356567 50.59645264 3.02356567 50.59645264 3.04760742 49.16455078 C3.58766166 24.41336456 3.58766166 24.41336456 0 0 Z " fill="#DFFDDD" transform="translate(525,368)"/>
<path d="M0 0 C2.42999536 2.27364177 3.42805835 3.68273845 4 7 C3.01 7.66 2.02 8.32 1 9 C0.34 8.67 -0.32 8.34 -1 8 C-1 7.34 -1 6.68 -1 6 C-2.98 6.99 -2.98 6.99 -5 8 C-5 8.99 -5 9.98 -5 11 C-6.5625 12.375 -6.5625 12.375 -9 14 C-10.14700756 14.83171638 -11.29274848 15.6651812 -12.4375 16.5 C-18.09301866 20.50498102 -18.09301866 20.50498102 -21 22 C-21.66 21.67 -22.32 21.34 -23 21 C-22.09378906 20.23816406 -21.18757812 19.47632813 -20.25390625 18.69140625 C-13.19759865 12.72292183 -6.38712924 6.69127826 0 0 Z " fill="#18B811" transform="translate(548,543)"/>
<path d="M0 0 C0 1.32 0 2.64 0 4 C-1.98 4 -3.96 4 -6 4 C-6 5.65 -6 7.3 -6 9 C-4.35 9 -2.7 9 -1 9 C-0.67 10.32 -0.34 11.64 0 13 C-6.34507042 13.35915493 -6.34507042 13.35915493 -8.9375 11.9375 C-10.6140629 8.88023824 -10.36528977 6.4093712 -10 3 C-7.7672032 -1.07157064 -4.21152194 -0.23838803 0 0 Z " fill="#E2E2E2" transform="translate(724,763)"/>
<path d="M0 0 C3.96 0.33 7.92 0.66 12 1 C12 1.66 12 2.32 12 3 C14.64 3 17.28 3 20 3 C20 3.66 20 4.32 20 5 C20.78246094 4.98839844 21.56492187 4.97679687 22.37109375 4.96484375 C23.38300781 4.95582031 24.39492188 4.94679688 25.4375 4.9375 C26.44683594 4.92589844 27.45617187 4.91429687 28.49609375 4.90234375 C31 5 31 5 32 6 C33.63256758 6.15714654 35.27135338 6.25085414 36.91015625 6.31640625 C37.89951172 6.35830078 38.88886719 6.40019531 39.90820312 6.44335938 C40.94912109 6.48267578 41.99003906 6.52199219 43.0625 6.5625 C44.10728516 6.60568359 45.15207031 6.64886719 46.22851562 6.69335938 C48.81886884 6.79981225 51.40932186 6.9018276 54 7 C54 7.33 54 7.66 54 8 C35.19425557 8.63839843 17.81791784 7.3230027 0 1 C0 0.67 0 0.34 0 0 Z " fill="#40C23D" transform="translate(354,524)"/>
<path d="M0 0 C0.99 0.33 1.98 0.66 3 1 C3 3.64 3 6.28 3 9 C3.99 9 4.98 9 6 9 C6 6.36 6 3.72 6 1 C6.99 1 7.98 1 9 1 C9.36090226 8.33834586 9.36090226 8.33834586 7.875 11.0625 C5.03680106 12.48159947 2.99025324 11.78006606 0 11 C-1 10 -1 10 -1.1328125 7.96875 C-1.13023437 7.1540625 -1.12765625 6.339375 -1.125 5.5 C-1.12757813 4.6853125 -1.13015625 3.870625 -1.1328125 3.03125 C-1 1 -1 1 0 0 Z " fill="#E7E7E7" transform="translate(732,763)"/>
<path d="M0 0 C1.65 1.32 3.3 2.64 5 4 C3.78645579 7.64063263 3.0563953 7.79243419 -0.25390625 9.48046875 C-1.10791016 9.92197266 -1.96191406 10.36347656 -2.84179688 10.81835938 C-3.73962891 11.27017578 -4.63746094 11.72199219 -5.5625 12.1875 C-6.46419922 12.65091797 -7.36589844 13.11433594 -8.29492188 13.59179688 C-10.52563676 14.73666113 -12.7606047 15.87223559 -15 17 C-15.33 16.01 -15.66 15.02 -16 14 C-14.68 14 -13.36 14 -12 14 C-12 13.34 -12 12.68 -12 12 C-10.68 12 -9.36 12 -8 12 C-7.773125 11.195625 -7.54625 10.39125 -7.3125 9.5625 C-6.879375 8.716875 -6.44625 7.87125 -6 7 C-3.375 6.1875 -3.375 6.1875 -1 6 C-1.020625 5.195625 -1.04125 4.39125 -1.0625 3.5625 C-1 1 -1 1 0 0 Z " fill="#14BB11" transform="translate(588,743)"/>
<path d="M0 0 C0.66 0 1.32 0 2 0 C4.76544413 11.37075517 7.45159758 22.74285283 9.74316406 34.2199707 C10.21597305 37.91606049 10.21597305 37.91606049 12 41 C12.07226502 42.85287502 12.0838122 44.70833878 12.0625 46.5625 C12.05347656 47.57441406 12.04445313 48.58632813 12.03515625 49.62890625 C12.02355469 50.41136719 12.01195312 51.19382812 12 52 C11.67 52 11.34 52 11 52 C10.84442627 51.19071045 10.68885254 50.3814209 10.52856445 49.54760742 C6.57181016 28.89379167 6.57181016 28.89379167 1.47387695 8.4987793 C0.64851555 5.56041088 0 3.07076932 0 0 Z " fill="#D9FCD8" transform="translate(781,284)"/>
<path d="M0 0 C-1 1 -1 1 -4.4375 1.4375 C-8.04058997 1.64847551 -8.04058997 1.64847551 -10 4 C-12.75 4.16015625 -12.75 4.16015625 -16 4.0625 C-20.1560294 3.80201899 -20.1560294 3.80201899 -24 5 C-26.88370333 5.07194869 -29.74239664 5.09291708 -32.625 5.0625 C-33.42679687 5.05798828 -34.22859375 5.05347656 -35.0546875 5.04882812 C-37.03649006 5.03703168 -39.01825433 5.01909605 -41 5 C-41 4.67 -41 4.34 -41 4 C-39.50726563 3.83564453 -39.50726563 3.83564453 -37.984375 3.66796875 C-36.57281242 3.50873395 -35.16136318 3.34849259 -33.75 3.1875 C-33.00016846 3.10201904 -32.25033691 3.01653809 -31.4777832 2.9284668 C-27.15685726 2.4200965 -22.85664407 1.8401603 -18.55859375 1.1640625 C-17.21619629 0.95293823 -17.21619629 0.95293823 -15.84667969 0.73754883 C-14.09749499 0.4579555 -12.34938761 0.17152171 -10.60253906 -0.12231445 C-9.79913086 -0.25081787 -8.99572266 -0.37932129 -8.16796875 -0.51171875 C-7.10485474 -0.68900513 -7.10485474 -0.68900513 -6.02026367 -0.86987305 C-3.80369534 -1.01264415 -2.1142335 -0.64480412 0 0 Z " fill="#D8FBD5" transform="translate(474,794)"/>
<path d="M0 0 C0.763125 0.20625 1.52625 0.4125 2.3125 0.625 C2.6425 2.275 2.9725 3.925 3.3125 5.625 C0.6725 5.625 -1.9675 5.625 -4.6875 5.625 C-3.01795181 8.84904978 -3.01795181 8.84904978 -0.0625 9.3125 C1.113125 9.4671875 1.113125 9.4671875 2.3125 9.625 C2.3125 9.955 2.3125 10.285 2.3125 10.625 C-0.5 10.875 -0.5 10.875 -3.6875 10.625 C-5.625 8.9375 -5.625 8.9375 -6.6875 6.625 C-6.5625 4 -6.5625 4 -5.6875 1.625 C-2.6875 -0.375 -2.6875 -0.375 0 0 Z " fill="#FAFAFA" transform="translate(761.6875,764.375)"/>
<path d="M0 0 C0.66 0 1.32 0 2 0 C1.34695118 3.89017121 0.19461184 7.30443912 -1.28515625 10.95703125 C-1.73310547 12.06884766 -2.18105469 13.18066406 -2.64257812 14.32617188 C-3.11115234 15.47666016 -3.57972656 16.62714844 -4.0625 17.8125 C-4.53494141 18.98232422 -5.00738281 20.15214844 -5.49414062 21.35742188 C-6.65888716 24.23987543 -7.82763234 27.12063965 -9 30 C-9.33 30 -9.66 30 -10 30 C-10 28.35 -10 26.7 -10 25 C-9.34 25 -8.68 25 -8 25 C-7.38926482 22.12081987 -6.9156277 19.30091524 -6.5625 16.375 C-6 13 -6 13 -4 10 C-3.34 10 -2.68 10 -2 10 C-2 8.02 -2 6.04 -2 4 C-1.34 4 -0.68 4 0 4 C0 2.68 0 1.36 0 0 Z " fill="#1EB51B" transform="translate(773,531)"/>
<path d="M0 0 C0 5.00599715 -1.74924443 9.55987311 -4 14 C-7.25 16.1875 -7.25 16.1875 -10 17 C-10.33 16.01 -10.66 15.02 -11 14 C-9.63494524 11.84137762 -8.26983882 9.92434649 -6.6875 7.9375 C-6.27048828 7.39544922 -5.85347656 6.85339844 -5.42382812 6.29492188 C-3.7072487 4.08006899 -1.9829091 1.9829091 0 0 Z " fill="#18BD13" transform="translate(298,313)"/>
<path d="M0 0 C0.66 0 1.32 0 2 0 C0.23465356 4.84015316 -2.19536725 9.2835127 -4.625 13.8125 C-5.04523437 14.60076172 -5.46546875 15.38902344 -5.8984375 16.20117188 C-6.9300009 18.13535326 -7.96391172 20.06823983 -9 22 C-9.33 22 -9.66 22 -10 22 C-10.875 19.4375 -10.875 19.4375 -11 16 C-9.65243725 13.97865587 -8.15166298 12.33947301 -6.4453125 10.61328125 C-4.76247709 8.9499236 -4.76247709 8.9499236 -4 6 C-3.34 6 -2.68 6 -2 6 C-1.855625 5.195625 -1.71125 4.39125 -1.5625 3.5625 C-1 1 -1 1 0 0 Z " fill="#DFFCDF" transform="translate(53,192)"/>
<path d="M0 0 C0.66 0.33 1.32 0.66 2 1 C2 1.99 2 2.98 2 4 C2.66 3.34 3.32 2.68 4 2 C4.99 2.33 5.98 2.66 7 3 C5.19047409 4.83635578 3.37759362 6.66916208 1.5625 8.5 C1.04623047 9.02464844 0.52996094 9.54929688 -0.00195312 10.08984375 C-1.31576787 11.41224552 -2.65593505 12.70835568 -4 14 C-4.33 14 -4.66 14 -5 14 C-5 12.02 -5 10.04 -5 8 C-3.68 7.34 -2.36 6.68 -1 6 C-1.309375 5.071875 -1.309375 5.071875 -1.625 4.125 C-1.810625 3.073125 -1.810625 3.073125 -2 2 C-1.34 1.34 -0.68 0.68 0 0 Z " fill="#11BA0D" transform="translate(248,245)"/>
<path d="M0 0 C0.33 0 0.66 0 1 0 C0.42978066 5.3503559 -0.20734361 10.67787852 -1 16 C-1.66 16 -2.32 16 -3 16 C-2.979375 16.969375 -2.95875 17.93875 -2.9375 18.9375 C-3 22 -3 22 -4 23 C-4.36760731 25.32817964 -4.70241581 27.6618385 -5 30 C-5.66 30 -6.32 30 -7 30 C-6.36617071 23.2605493 -4.77702547 17.00449379 -2.9375 10.5 C-2.65583984 9.48679687 -2.37417969 8.47359375 -2.08398438 7.4296875 C-1.39434817 4.95167266 -0.69958811 2.47522 0 0 Z " fill="#35BA30" transform="translate(14,284)"/>
<path d="M0 0 C-0.85464844 0.27714844 -1.70929687 0.55429687 -2.58984375 0.83984375 C-3.69457031 1.20207031 -4.79929687 1.56429687 -5.9375 1.9375 C-7.03964844 2.29714844 -8.14179687 2.65679688 -9.27734375 3.02734375 C-11.88123475 3.73856668 -11.88123475 3.73856668 -13 5 C-15.33333333 5.33333333 -17.66666667 5.66666667 -20 6 C-20.33 6.33 -20.66 6.66 -21 7 C-22.51928038 7.07179964 -24.04167482 7.08392007 -25.5625 7.0625 C-26.38878906 7.05347656 -27.21507812 7.04445313 -28.06640625 7.03515625 C-28.70449219 7.02355469 -29.34257812 7.01195312 -30 7 C-25.24635787 4.44877762 -20.17829896 3.2341906 -15 1.8125 C-14.00226563 1.52697266 -13.00453125 1.24144531 -11.9765625 0.94726562 C-11.01492188 0.68236328 -10.05328125 0.41746094 -9.0625 0.14453125 C-8.18722656 -0.09934326 -7.31195312 -0.34321777 -6.41015625 -0.59448242 C-3.89759113 -1.01723067 -2.39006299 -0.81135984 0 0 Z " fill="#CDF8CA" transform="translate(522,782)"/>
<path d="M0 0 C0 1.32 0 2.64 0 4 C-3.33830099 6.225534 -5.02460627 6.11207191 -8.92578125 6.00390625 C-11.68688302 5.99870643 -14.29862698 6.4597254 -17 7 C-13.96205445 4.48757583 -11.08561027 3.11771466 -7.375 1.8125 C-6.41335938 1.46832031 -5.45171875 1.12414062 -4.4609375 0.76953125 C-2 0 -2 0 0 0 Z " fill="#23BC1E" transform="translate(359,274)"/>
<path d="M0 0 C1.47906892 -0.02689216 2.95827483 -0.04634621 4.4375 -0.0625 C5.26121094 -0.07410156 6.08492188 -0.08570313 6.93359375 -0.09765625 C9 0 9 0 10 1 C13.66344611 1.13568319 16.50615721 1.16461426 20 0 C20.12375 0.598125 20.2475 1.19625 20.375 1.8125 C20.95475985 4.26231348 20.95475985 4.26231348 23 7 C22.34515625 6.81824219 21.6903125 6.63648438 21.015625 6.44921875 C14.03551046 4.52672958 7.0301819 2.72994005 0 1 C0 0.67 0 0.34 0 0 Z " fill="#D3F8D0" transform="translate(492,11)"/>
<path d="M0 0 C0.61875 0.639375 1.2375 1.27875 1.875 1.9375 C6.07201536 6.14668062 10.56422757 10.04656399 15 14 C14.34 14.66 13.68 15.32 13 16 C12.67 15.34 12.34 14.68 12 14 C11.34 13.855625 10.68 13.71125 10 13.5625 C9.34 13.376875 8.68 13.19125 8 13 C7.67 12.01 7.34 11.02 7 10 C6.01 10.33 5.02 10.66 4 11 C4 10.01 4 9.02 4 8 C3.01 7.67 2.02 7.34 1 7 C0.67 4.69 0.34 2.38 0 0 Z " fill="#21B91C" transform="translate(244,541)"/>
<path d="M0 0 C1.65 0 3.3 0 5 0 C5.33 0.99 5.66 1.98 6 3 C4.68 3.33 3.36 3.66 2 4 C2 6.97 2 9.94 2 13 C1.01 13 0.02 13 -1 13 C-1.0272415 11.58344207 -1.04650467 10.16672955 -1.0625 8.75 C-1.07410156 7.96109375 -1.08570313 7.1721875 -1.09765625 6.359375 C-1.00385306 4.09308998 -0.63241063 2.1711105 0 0 Z " fill="#E6E6E6" transform="translate(768,763)"/>
<path d="M0 0 C-0.62648438 0.19335938 -1.25296875 0.38671875 -1.8984375 0.5859375 C-2.71570313 0.84632812 -3.53296875 1.10671875 -4.375 1.375 C-5.18710937 1.63023438 -5.99921875 1.88546875 -6.8359375 2.1484375 C-9.16459185 2.89854283 -9.16459185 2.89854283 -11 5 C-13.6796875 5.88671875 -13.6796875 5.88671875 -16.875 6.6875 C-17.92429687 6.95949219 -18.97359375 7.23148438 -20.0546875 7.51171875 C-22.9274731 7.98797631 -24.28428538 7.79339175 -27 7 C-23.25614186 5.62841249 -19.50408803 4.28080868 -15.75 2.9375 C-14.68652344 2.54755859 -13.62304688 2.15761719 -12.52734375 1.75585938 C-11.50253906 1.39169922 -10.47773438 1.02753906 -9.421875 0.65234375 C-8.47924805 0.31195068 -7.53662109 -0.02844238 -6.56542969 -0.37915039 C-3.89647093 -1.02505467 -2.5478969 -0.92531647 0 0 Z " fill="#31B92B" transform="translate(284,18)"/>
<path d="M0 0 C2.7915438 4.18731571 3.81283964 8.62780599 5.1875 13.4375 C5.47302734 14.39205078 5.75855469 15.34660156 6.05273438 16.33007812 C6.31763672 17.25111328 6.58253906 18.17214844 6.85546875 19.12109375 C7.09934326 19.9608374 7.34321777 20.80058105 7.59448242 21.66577148 C8.02479333 24.14271464 7.79591328 25.63945925 7 28 C7 27.34 7 26.68 7 26 C6.34 26 5.68 26 5 26 C4.93941406 25.41992188 4.87882813 24.83984375 4.81640625 24.2421875 C4.33983439 19.79907137 3.78991334 15.40094577 3 11 C2.34 11 1.68 11 1 11 C0.67 7.37 0.34 3.74 0 0 Z " fill="#36BC35" transform="translate(778,278)"/>
<path d="M0 0 C1.68604279 2.52906418 2.65637083 4.4709079 3.69140625 7.2734375 C3.99626953 8.0984375 4.30113281 8.9234375 4.61523438 9.7734375 C4.92783203 10.63195312 5.24042969 11.49046875 5.5625 12.375 C5.87896484 13.22578125 6.19542969 14.0765625 6.52148438 14.953125 C7.99300222 18.96465135 9.23446083 22.78558851 10 27 C6.40598948 24.60399298 6.42411688 23.75251415 5.5 19.6875 C4.71229844 16.49108997 4.11466927 14.18523497 2.375 11.375 C0.30360841 7.7971418 0.25723016 4.07133247 0 0 Z " fill="#30B92E" transform="translate(768,250)"/>
<path d="M0 0 C2.35082212 2.89642841 3.83519406 5.65356331 5.1875 9.125 C5.53167969 9.99382812 5.87585938 10.86265625 6.23046875 11.7578125 C7 14 7 14 7 16 C6.34 16 5.68 16 5 16 C4.67 16.99 4.34 17.98 4 19 C3.67 19 3.34 19 3 19 C3.495 14.545 3.495 14.545 4 10 C3.34 10 2.68 10 2 10 C0.3125 8.375 0.3125 8.375 -1 6 C-0.6875 2.75 -0.6875 2.75 0 0 Z " fill="#29BD26" transform="translate(761,234)"/>
<path d="M0 0 C-0.61198376 3.43950364 -1.92058847 5.51564485 -4.0625 8.25 C-4.61035156 8.95640625 -5.15820312 9.6628125 -5.72265625 10.390625 C-6.14417969 10.92171875 -6.56570313 11.4528125 -7 12 C-8.20017115 8.0394352 -7.66319352 5.82534509 -6 2 C-3 0 -3 0 0 0 Z " fill="#16BB14" transform="translate(724,629)"/>
<path d="M0 0 C0.66 0.33 1.32 0.66 2 1 C-0.12722097 5.03052394 -2.39730976 7.25509315 -6 10 C-6.845625 10.86625 -7.69125 11.7325 -8.5625 12.625 C-10.74551645 14.75204167 -12.29604281 15.75377872 -15 17 C-11.68780878 12.31057463 -8.59346806 8.50554142 -4 5 C-2.62631655 3.36643049 -1.28062485 1.7074998 0 0 Z " fill="#30BA29" transform="translate(121,110)"/>
<path d="M0 0 C0.33 0.99 0.66 1.98 1 3 C-0.45765165 4.62561151 -1.91614386 6.25046934 -3.375 7.875 C-4.18710937 8.77992188 -4.99921875 9.68484375 -5.8359375 10.6171875 C-9.99759615 15.19951923 -9.99759615 15.19951923 -14 16 C-9.40525596 10.60117576 -4.72323727 5.28666913 0 0 Z " fill="#ECFEEC" transform="translate(693,669)"/>
<path d="M0 0 C1.37478516 0.01740234 1.37478516 0.01740234 2.77734375 0.03515625 C3.69644531 0.04417969 4.61554688 0.05320312 5.5625 0.0625 C6.27277344 0.07410156 6.98304688 0.08570313 7.71484375 0.09765625 C3.50502063 2.35501184 -0.71210353 3.26526101 -5.34765625 4.28515625 C-6.16298828 4.47529297 -6.97832031 4.66542969 -7.81835938 4.86132812 C-8.99495117 5.12333008 -8.99495117 5.12333008 -10.1953125 5.390625 C-11.26471069 5.63075317 -11.26471069 5.63075317 -12.35571289 5.87573242 C-14.28515625 6.09765625 -14.28515625 6.09765625 -17.28515625 5.09765625 C-12.47324137 2.3308052 -8.69886035 1.64820243 -3.28515625 1.09765625 C-2.28515625 0.09765625 -2.28515625 0.09765625 0 0 Z " fill="#D7FBD4" transform="translate(312.28515625,6.90234375)"/>
<path d="M0 0 C5.06398064 2.21689819 10.07895682 4.47638811 15 7 C11.58827648 8.04976108 8.55430783 8.45374142 5 8 C3.25 5.5625 3.25 5.5625 2 3 C1.34 2.67 0.68 2.34 0 2 C0 1.34 0 0.68 0 0 Z " fill="#17BA12" transform="translate(449,279)"/>
<path d="M0 0 C0.33 0.66 0.66 1.32 1 2 C-0.23941385 5.71824156 -1.9233963 6.67378745 -5 9 C-5.66 9.66 -6.32 10.32 -7 11 C-8.98356483 11.71408334 -10.98315437 12.38617742 -13 13 C-9.0580583 8.11950075 -4.88049925 3.9419417 0 0 Z " fill="#DEFCDD" transform="translate(676,687)"/>
<path d="M0 0 C0.928125 0.2784375 0.928125 0.2784375 1.875 0.5625 C4.04160178 1.23686176 4.04160178 1.23686176 6 0 C6 0.99 6 1.98 6 3 C8.35438733 4.42944945 9.48032433 5.08661261 12.25 4.625 C12.8275 4.41875 13.405 4.2125 14 4 C13.67 4.99 13.34 5.98 13 7 C12.34 6.67 11.68 6.34 11 6 C11 6.99 11 7.98 11 9 C11.66 9 12.32 9 13 9 C12.67 9.66 12.34 10.32 12 11 C10.18401175 9.54601271 8.37230481 8.08667675 6.5625 6.625 C5.04849609 5.40683594 5.04849609 5.40683594 3.50390625 4.1640625 C1 2 1 2 0 0 Z " fill="#20B91A" transform="translate(130,697)"/>
<path d="M0 0 C0.66 0 1.32 0 2 0 C-0.45765035 7.91909556 -3.66818573 15.41985296 -7 23 C-7.33 23 -7.66 23 -8 23 C-8.35916794 16.89414503 -6.5914403 12.78858707 -3 8 C-2.28591666 6.01643517 -1.61382258 4.01684563 -1 2 C-0.67 1.34 -0.34 0.68 0 0 Z " fill="#DFFDDF" transform="translate(31,234)"/>
<path d="M0 0 C1.98 0.99 1.98 0.99 4 2 C4 2.99 4 3.98 4 5 C4.99 5 5.98 5 7 5 C7.33 6.65 7.66 8.3 8 10 C8.66 10 9.32 10 10 10 C10 11.98 10 13.96 10 16 C0 4.46153846 0 4.46153846 0 0 Z " fill="#24B71E" transform="translate(53,603)"/>
<path d="M0 0 C0 1.32 0 2.64 0 4 C-1.99954746 4.04254356 -4.00041636 4.04080783 -6 4 C-6.33 3.67 -6.66 3.34 -7 3 C-7.2165625 4.423125 -7.2165625 4.423125 -7.4375 5.875 C-8 9 -8 9 -9 11 C-10 10 -10 10 -10.25 6.625 C-10 3 -10 3 -8.9375 1.0625 C-5.98831309 -0.55479605 -3.29132441 -0.18630138 0 0 Z " fill="#D9D9D9" transform="translate(724,763)"/>
<path d="M0 0 C0.66 0.33 1.32 0.66 2 1 C-2.38130557 5.58146674 -6.54843278 9.72905967 -12 13 C-11.6641593 9.89347355 -11.40950721 8.39585697 -9.125 6.1875 C-7 5 -7 5 -4 5 C-4 4.34 -4 3.68 -4 3 C-3.34 3 -2.68 3 -2 3 C-2 2.34 -2 1.68 -2 1 C-1.34 0.67 -0.68 0.34 0 0 Z " fill="#DDFCDD" transform="translate(541,548)"/>
<path d="M0 0 C0.66 0 1.32 0 2 0 C2.66 0.99 3.32 1.98 4 3 C4.99 3.33 5.98 3.66 7 4 C7.33 3.34 7.66 2.68 8 2 C8 2.99 8 3.98 8 5 C8.66 5 9.32 5 10 5 C10 7.64 10 10.28 10 13 C6.07523398 9.29950632 3.01551157 5.48018862 0 1 C0 0.67 0 0.34 0 0 Z " fill="#18B714" transform="translate(288,473)"/>
<path d="M0 0 C0.95721871 3.03458696 1.00893515 4.99541482 0.1875 8.0625 C0.01605469 8.73410156 -0.15539062 9.40570313 -0.33203125 10.09765625 C-1 12 -1 12 -3 15 C-3.39013716 16.9896995 -3.73202649 18.99019869 -4 21 C-4.66 21 -5.32 21 -6 21 C-5.42381249 15.85404946 -4.25256722 11.44921945 -2.4375 6.5625 C-1.98246094 5.32628906 -1.52742187 4.09007812 -1.05859375 2.81640625 C-0.70925781 1.88699219 -0.35992187 0.95757812 0 0 Z " fill="#CAF7C7" transform="translate(203,323)"/>
<path d="M0 0 C0.33 0.66 0.66 1.32 1 2 C0.54625 2.515625 0.0925 3.03125 -0.375 3.5625 C-2.21630976 6.03867401 -2.21630976 6.03867401 -2.9375 9.5625 C-4.06150809 13.19899676 -4.70259307 14.24825257 -8 16 C-8.66 16 -9.32 16 -10 16 C-8.39270035 12.59963241 -6.46281671 9.47943574 -4.4375 6.3125 C-3.81746094 5.33925781 -3.19742188 4.36601562 -2.55859375 3.36328125 C-1 1 -1 1 0 0 Z " fill="#1DBA1D" transform="translate(72,167)"/>
<path d="M0 0 C1.65 0 3.3 0 5 0 C0.85989729 4.54075781 -3.82390176 7.71842138 -9 11 C-8.625 8.5625 -8.625 8.5625 -8 6 C-7.34 5.67 -6.68 5.34 -6 5 C-5.01 5.33 -4.02 5.66 -3 6 C-2.690625 5.38125 -2.38125 4.7625 -2.0625 4.125 C-1.375 2.75 -0.6875 1.375 0 0 Z " fill="#25B820" transform="translate(638,715)"/>
<path d="M0 0 C2.3431213 0.25561323 4.67843403 0.59270772 7 1 C7.33 1.66 7.66 2.32 8 3 C10.02463255 3.65213292 10.02463255 3.65213292 12 4 C12 4.66 12 5.32 12 6 C13.32 6 14.64 6 16 6 C16.66 7.65 17.32 9.3 18 11 C15.74804937 9.73252511 13.49844253 8.46117132 11.25 7.1875 C10.61578125 6.83107422 9.9815625 6.47464844 9.328125 6.10742188 C6.05195463 4.24751265 2.95014899 2.36160916 0 0 Z " fill="#25B622" transform="translate(494,215)"/>
<path d="M0 0 C-1 2 -1 2 -3.1875 3.125 C-6.26769331 4.08328236 -8.79309948 4.14915816 -12 4 C-12 4.66 -12 5.32 -12 6 C-13.98 6 -15.96 6 -18 6 C-14.83103791 3.33623476 -11.79480631 2.04055048 -7.875 0.75 C-6.82054687 0.39421875 -5.76609375 0.0384375 -4.6796875 -0.328125 C-2 -1 -2 -1 0 0 Z " fill="#D0F8D0" transform="translate(540,775)"/>
<path d="M0 0 C-8.35873272 3.58231402 -16.07985057 3.29551415 -25 3 C-25 2.67 -25 2.34 -25 2 C-21.58518736 1.46649143 -18.16796104 0.95041814 -14.75 0.4375 C-13.78191406 0.28603516 -12.81382812 0.13457031 -11.81640625 -0.02148438 C-10.88183594 -0.16005859 -9.94726562 -0.29863281 -8.984375 -0.44140625 C-8.12553711 -0.57232666 -7.26669922 -0.70324707 -6.38183594 -0.83813477 C-3.98957886 -1.0007082 -2.27197422 -0.71976511 0 0 Z " fill="#D3FAD3" transform="translate(425,530)"/>
<path d="M0 0 C1.8161982 0.42188459 3.62794073 0.86299165 5.4375 1.3125 C6.44683594 1.55613281 7.45617187 1.79976562 8.49609375 2.05078125 C9.32238281 2.36402344 10.14867187 2.67726563 11 3 C11.33 3.99 11.66 4.98 12 6 C13.93618425 6.67156616 13.93618425 6.67156616 16 7 C16.66 7.33 17.32 7.66 18 8 C18 8.66 18 9.32 18 10 C13.48548686 8.6510689 9.67722719 6.83381706 5.625 4.4375 C4.56539062 3.81746094 3.50578125 3.19742188 2.4140625 2.55859375 C1.61742187 2.04425781 0.82078125 1.52992188 0 1 C0 0.67 0 0.34 0 0 Z " fill="#27B724" transform="translate(196,745)"/>
<path d="M0 0 C4.875 1.75 4.875 1.75 6 4 C6.99 3.34 7.98 2.68 9 2 C7.25 7.75 7.25 7.75 5 10 C4.16121545 8.71186658 3.32913217 7.41936744 2.5 6.125 C2.0359375 5.40570312 1.571875 4.68640625 1.09375 3.9453125 C0 2 0 2 0 0 Z " fill="#14BB0D" transform="translate(47,592)"/>
<path d="M0 0 C0.33 0 0.66 0 1 0 C1.18143117 7.80154041 0.19496945 11.27221317 -5 17 C-5.33 16.34 -5.66 15.68 -6 15 C-5.09239638 12.40267775 -4.12932108 9.90549025 -3.0625 7.375 C-2.77181641 6.66859375 -2.48113281 5.9621875 -2.18164062 5.234375 C-1.46132512 3.48672427 -0.73154306 1.74298085 0 0 Z " fill="#28BA25" transform="translate(30,240)"/>
<path d="M0 0 C3.2826932 1.49076434 5.93077441 3.38620321 8.75 5.625 C9.94882812 6.57246094 9.94882812 6.57246094 11.171875 7.5390625 C11.77515625 8.02117187 12.3784375 8.50328125 13 9 C12.01 9.33 11.02 9.66 10 10 C10 9.34 10 8.68 10 8 C7.69 7.67 5.38 7.34 3 7 C3 6.34 3 5.68 3 5 C2.34 5 1.68 5 1 5 C0.67 3.35 0.34 1.7 0 0 Z " fill="#21B71C" transform="translate(635,79)"/>
<path d="M0 0 C-4.06394559 2.22549401 -7.45195518 3.27644742 -12 4 C-12.66 4.66 -13.32 5.32 -14 6 C-15.98 5.34 -17.96 4.68 -20 4 C-20 3.67 -20 3.34 -20 3 C-17.41932437 2.30081695 -14.83627153 1.61538951 -12.25 0.9375 C-11.15558594 0.63875977 -11.15558594 0.63875977 -10.0390625 0.33398438 C-6.28968956 -0.63744407 -3.69725762 -1.15449387 0 0 Z " fill="#30BC2C" transform="translate(460,600)"/>
<path d="M0 0 C2.50037734 2.17424117 3.43628586 3.73045798 4 7 C3.01 7.66 2.02 8.32 1 9 C0.34 8.67 -0.32 8.34 -1 8 C-1 7.34 -1 6.68 -1 6 C-1.99 6.33 -2.98 6.66 -4 7 C-3.43628586 3.73045798 -2.50037734 2.17424117 0 0 Z " fill="#17BC11" transform="translate(548,543)"/>
<path d="M0 0 C2.64 0.33 5.28 0.66 8 1 C8 1.66 8 2.32 8 3 C6.02 3 4.04 3 2 3 C2 4.65 2 6.3 2 8 C0.68 8 -0.64 8 -2 8 C-1.34 5.36 -0.68 2.72 0 0 Z " fill="#E9E9E9" transform="translate(744,773)"/>
<path d="M0 0 C0.33 0 0.66 0 1 0 C1 3.3 1 6.6 1 10 C0.34 10 -0.32 10 -1 10 C-1 13.3 -1 16.6 -1 20 C-1.66 20 -2.32 20 -3 20 C-2.56367091 13.11059329 -1.91610155 6.64248536 0 0 Z " fill="#2DB829" transform="translate(6,316)"/>
<path d="M0 0 C7.72422049 0.66257422 15.34800303 1.76464626 23 3 C23 3.33 23 3.66 23 4 C18.05 4 13.1 4 8 4 C8 3.34 8 2.68 8 2 C5.36 1.67 2.72 1.34 0 1 C0 0.67 0 0.34 0 0 Z " fill="#32BB31" transform="translate(349,603)"/>
<path d="M0 0 C-0.99 0.33 -1.98 0.66 -3 1 C-3.33 1.99 -3.66 2.98 -4 4 C-8.0527516 4.98248524 -11.83861737 5.08159574 -16 5 C-13.13879225 3.09252817 -10.64745007 1.99646294 -7.4375 0.8125 C-6.46683594 0.44769531 -5.49617188 0.08289063 -4.49609375 -0.29296875 C-2 -1 -2 -1 0 0 Z " fill="#24B91F" transform="translate(476,594)"/>
<path d="M0 0 C0.33 0 0.66 0 1 0 C0.74438677 2.3431213 0.40729228 4.67843403 0 7 C-0.99 7.495 -0.99 7.495 -2 8 C-3.04808041 9.97522846 -4.0520411 11.97481509 -5 14 C-5.66 14 -6.32 14 -7 14 C-5.56032356 8.76481294 -3.18303389 4.36973991 0 0 Z " fill="#25B920" transform="translate(286,329)"/>
<path d="M0 0 C0.66 0.33 1.32 0.66 2 1 C1.01 2.485 1.01 2.485 0 4 C-0.99 4 -1.98 4 -3 4 C-3 5.65 -3 7.3 -3 9 C-5.64 9.33 -8.28 9.66 -11 10 C-7.50640535 6.40365256 -3.88901869 3.16548033 0 0 Z " fill="#E0FCDE" transform="translate(277,229)"/>
<path d="M0 0 C7.92 3.96 7.92 3.96 16 8 C16 8.33 16 8.66 16 9 C10.42724458 9.37151703 10.42724458 9.37151703 8.5625 7.75 C8.046875 7.1725 7.53125 6.595 7 6 C4.71578149 4.56464648 2.36843787 3.2959377 0 2 C0 1.34 0 0.68 0 0 Z " fill="#D8FCD4" transform="translate(200,748)"/>
<path d="M0 0 C-1.50951183 4.22663314 -4.1851654 5.83078032 -8 8 C-10.875 8.75 -10.875 8.75 -13 9 C-4.66666667 0 -4.66666667 0 0 0 Z " fill="#DBFBD9" transform="translate(633,724)"/>
<path d="M0 0 C4.40824473 2.90299043 8.71640781 5.91581363 13 9 C9.80484947 10.06505018 9.00991004 10.27693153 6 9 C4.61767557 7.37373596 3.28062485 5.7074998 2 4 C1.34 3.67 0.68 3.34 0 3 C0 2.01 0 1.02 0 0 Z " fill="#DCFDD9" transform="translate(152,716)"/>
<path d="M0 0 C0.33 0.66 0.66 1.32 1 2 C0.67 2.99 0.34 3.98 0 5 C1.65 5.33 3.3 5.66 5 6 C5.33 6.99 5.66 7.98 6 9 C1.69235185 7.43358249 -2.06171464 5.31663844 -6 3 C-6 2.67 -6 2.34 -6 2 C-4.02 1.34 -2.04 0.68 0 0 Z " fill="#23BA20" transform="translate(335,510)"/>
<path d="M0 0 C2.3125 -0.25 2.3125 -0.25 5 0 C6.625 1.8125 6.625 1.8125 8 4 C8.98165594 5.01801357 9.97591432 6.0246803 11 7 C10.67 7.99 10.34 8.98 10 10 C8.33037631 8.52417192 6.6643694 7.04425109 5 5.5625 C4.071875 4.73878906 3.14375 3.91507812 2.1875 3.06640625 C1.465625 2.38449219 0.74375 1.70257813 0 1 C0 0.67 0 0.34 0 0 Z " fill="#1FB91D" transform="translate(308,496)"/>
<path d="M0 0 C0.33 0 0.66 0 1 0 C1.33 2.97 1.66 5.94 2 9 C1.34 8.34 0.68 7.68 0 7 C-1.32 9.64 -2.64 12.28 -4 15 C-4.66 15 -5.32 15 -6 15 C-4.40109514 9.80355921 -2.25861997 4.93387858 0 0 Z " fill="#28BA22" transform="translate(588,482)"/>
<path d="M0 0 C0.33 0.66 0.66 1.32 1 2 C-4.0940919 9.68490153 -4.0940919 9.68490153 -7.875 11 C-8.57625 11 -9.2775 11 -10 11 C-6.79239749 7.19364503 -3.59253891 3.45436433 0 0 Z " fill="#D1F8CE" transform="translate(251,251)"/>
<path d="M0 0 C4.54109672 4.26587874 8.24735246 9.03612328 12 14 C11.01 14.495 11.01 14.495 10 15 C8 13.1875 8 13.1875 6 11 C6 10.01 6 9.02 6 8 C5.01 8 4.02 8 3 8 C0.89229241 5.11165997 0 3.61537605 0 0 Z " fill="#26B622" transform="translate(701,140)"/>
<path d="M0 0 C3.63 1.98 7.26 3.96 11 6 C11 6.33 11 6.66 11 7 C8.69 7.66 6.38 8.32 4 9 C4 7.68 4 6.36 4 5 C3.34 4.67 2.68 4.34 2 4 C2 3.34 2 2.68 2 2 C1.34 2 0.68 2 0 2 C0 1.34 0 0.68 0 0 Z " fill="#E3FCDF" transform="translate(326,511)"/>
<path d="M0 0 C0 0.66 0 1.32 0 2 C-2.99106784 4.36503039 -5.02861582 5.91553181 -8.875 6.25 C-9.57625 6.1675 -10.2775 6.085 -11 6 C-11 6.66 -11 7.32 -11 8 C-12.32 7.67 -13.64 7.34 -15 7 C-12.87767021 5.82823482 -10.75242209 4.66245215 -8.625 3.5 C-7.72007812 2.99919922 -7.72007812 2.99919922 -6.796875 2.48828125 C-2.2265625 0 -2.2265625 0 0 0 Z " fill="#D0F8D0" transform="translate(310,211)"/>
<path d="M0 0 C0.67578125 1.734375 0.67578125 1.734375 1 4 C-0.14453125 6.140625 -0.14453125 6.140625 -1.8125 8.25 C-2.35519531 8.95640625 -2.89789062 9.6628125 -3.45703125 10.390625 C-3.96621094 10.92171875 -4.47539063 11.4528125 -5 12 C-5.66 12 -6.32 12 -7 12 C-5.44298069 7.32894208 -2.91552627 3.91294315 0 0 Z " fill="#D4F9D0" transform="translate(739,608)"/>
<path d="M0 0 C4.62 1.65 9.24 3.3 14 5 C14 5.33 14 5.66 14 6 C12.02 6 10.04 6 8 6 C8 5.34 8 4.68 8 4 C7.34 4 6.68 4 6 4 C6 4.66 6 5.32 6 6 C4.68 5.34 3.36 4.68 2 4 C2 3.34 2 2.68 2 2 C1.34 2 0.68 2 0 2 C0 1.34 0 0.68 0 0 Z " fill="#1CB717" transform="translate(314,591)"/>
<path d="M0 0 C4.13937592 3.30015998 7.58662205 6.17324411 10 11 C9.01 11 8.02 11 7 11 C6.71125 10.360625 6.4225 9.72125 6.125 9.0625 C5.17176549 6.84793921 5.17176549 6.84793921 3 6 C2.67 6.66 2.34 7.32 2 8 C0 2.25 0 2.25 0 0 Z " fill="#25B821" transform="translate(491,308)"/>
<path d="M0 0 C0.66 0 1.32 0 2 0 C0.35433477 5.68502535 -2.29032784 10.76681636 -5 16 C-6.13583456 12.28272326 -5.66670026 10.52948291 -4 7 C-3.34 7 -2.68 7 -2 7 C-2 5.35 -2 3.7 -2 2 C-1.34 2 -0.68 2 0 2 C0 1.34 0 0.68 0 0 Z " fill="#28B723" transform="translate(213,298)"/>
<path d="M0 0 C1.65 0.33 3.3 0.66 5 1 C4.649375 1.5775 4.29875 2.155 3.9375 2.75 C2.81273456 4.93510649 2.81273456 4.93510649 3.25 7.1875 C3.85008433 9.19815586 3.85008433 9.19815586 6 10 C5.34 10.66 4.68 11.32 4 12 C3.13353333 10.56988027 2.28218171 9.13059381 1.4375 7.6875 C0.72400391 6.48673828 0.72400391 6.48673828 -0.00390625 5.26171875 C-1 3 -1 3 0 0 Z " fill="#1EBA18" transform="translate(577,291)"/>
<path d="M0 0 C0.66 0 1.32 0 2 0 C4.61281488 5.87883349 4.18328202 11.70731728 4 18 C3.67 18 3.34 18 3 18 C2.01 12.06 1.02 6.12 0 0 Z " fill="#CEFACE" transform="translate(525,368)"/>
<path d="M0 0 C1.27450447 0.59638333 2.54446877 1.20247416 3.8125 1.8125 C4.52019531 2.14894531 5.22789062 2.48539062 5.95703125 2.83203125 C8.01129035 4.00645471 9.41616278 5.25628016 11 7 C7.625 7.125 7.625 7.125 4 7 C3.34 6.34 2.68 5.68 2 5 C2 4.01 2 3.02 2 2 C1.34 2 0.68 2 0 2 C0 1.34 0 0.68 0 0 Z " fill="#1CB716" transform="translate(464,287)"/>
<path d="M0 0 C2.92879371 0.62759865 5.36095629 1.58622659 8 3 C2.375 6 2.375 6 -1 6 C-0.67 4.02 -0.34 2.04 0 0 Z " fill="#1CB916" transform="translate(449,515)"/>
<path d="M0 0 C3.88723524 1.47446854 4.93901883 3.5052928 7 7 C7.99 7.33 8.98 7.66 10 8 C9.34 9.32 8.68 10.64 8 12 C4.78119883 8.2064129 2.3836813 4.34170523 0 0 Z " fill="#D8FBD6" transform="translate(218,506)"/>
<path d="M0 0 C-0.99 0 -1.98 0 -3 0 C-3 0.66 -3 1.32 -3 2 C-5.97851562 2.34179688 -5.97851562 2.34179688 -8.95703125 2.68359375 C-11.19396393 2.97170735 -11.19396393 2.97170735 -14 4 C-14.99 3.34 -15.98 2.68 -17 2 C-14.91952703 1.4678559 -12.83547707 0.94968214 -10.75 0.4375 C-9.58984375 0.14746094 -8.4296875 -0.14257812 -7.234375 -0.44140625 C-4.27909017 -0.95179964 -2.75565899 -1.02996165 0 0 Z " fill="#32BB2E" transform="translate(377,271)"/>
<path d="M0 0 C1.10844919 3.32534757 0.84454356 5.62182575 0 9 C-0.66 9 -1.32 9 -2 9 C-2 11.31 -2 13.62 -2 16 C-2.99 16 -3.98 16 -5 16 C-3.41078475 10.63904723 -1.81027062 5.29156027 0 0 Z " fill="#35BB31" transform="translate(21,263)"/>
<path d="M0 0 C-3.3 2.31 -6.6 4.62 -10 7 C-10.33 6.34 -10.66 5.68 -11 5 C-10.67 4.34 -10.34 3.68 -10 3 C-9.34 3 -8.68 3 -8 3 C-7.67 2.01 -7.34 1.02 -7 0 C-4.05610218 -1.17755913 -3.10046087 -1.03348696 0 0 Z " fill="#DBFCDA" transform="translate(164,76)"/>
<path d="M0 0 C-5.28 2.31 -10.56 4.62 -16 7 C-16 6.34 -16 5.68 -16 5 C-15.34 5 -14.68 5 -14 5 C-14 4.34 -14 3.68 -14 3 C-3.71052632 -1.23684211 -3.71052632 -1.23684211 0 0 Z " fill="#DAFDDA" transform="translate(233,36)"/>
<path d="M0 0 C-4.34242429 4.34242429 -8.13551546 4.7444669 -14 5 C-10.63156097 2.05261585 -4.40469071 -2.20234535 0 0 Z " fill="#30BD2E" transform="translate(256,27)"/>
<path d="M0 0 C-0.66 0 -1.32 0 -2 0 C-2 1.32 -2 2.64 -2 4 C-1.01 4 -0.02 4 1 4 C1 4.66 1 5.32 1 6 C-2.93673644 4.68775452 -5.22719294 3.08089673 -8 0 C-4.94736336 -0.98120464 -3.05263664 -0.98120464 0 0 Z " fill="#1BBB18" transform="translate(195,739)"/>
<path d="M0 0 C1 3 1 3 0.4375 5.5625 C-1 8 -1 8 -4.125 9.3125 C-5.07375 9.539375 -6.0225 9.76625 -7 10 C-6.02223933 8.51990357 -5.0427506 7.04094856 -4.0625 5.5625 C-3.51722656 4.73878906 -2.97195313 3.91507813 -2.41015625 3.06640625 C-1 1 -1 1 0 0 Z " fill="#27BA22" transform="translate(563,525)"/>
<path d="M0 0 C0.33 0.66 0.66 1.32 1 2 C1.33 1.34 1.66 0.68 2 0 C3.32 0.33 4.64 0.66 6 1 C2.04 4.465 2.04 4.465 -2 8 C-2.33 6.68 -2.66 5.36 -3 4 C-1.5625 1.75 -1.5625 1.75 0 0 Z " fill="#1FBB1C" transform="translate(480,497)"/>
<path d="M0 0 C2.97 0.495 2.97 0.495 6 1 C6.12375 2.134375 6.2475 3.26875 6.375 4.4375 C6.684375 6.2009375 6.684375 6.2009375 7 8 C7.66 8.33 8.32 8.66 9 9 C8.01 9 7.02 9 6 9 C4.39453125 7.03125 4.39453125 7.03125 2.8125 4.5 C2.28269531 3.6646875 1.75289062 2.829375 1.20703125 1.96875 C0.80871094 1.3190625 0.41039062 0.669375 0 0 Z " fill="#21B81B" transform="translate(558,267)"/>
<path d="M0 0 C-1.5595265 3.82792868 -3.83631836 6.36359864 -7 9 C-9.1640625 8.63671875 -9.1640625 8.63671875 -11 8 C-9.54712339 6.66072279 -8.08752741 5.32873153 -6.625 4 C-5.81289063 3.2575 -5.00078125 2.515 -4.1640625 1.75 C-2 0 -2 0 0 0 Z " fill="#D6FAD3" transform="translate(266,239)"/>
<path d="M0 0 C-3.19990508 2.74277578 -6.00499382 4.6302836 -10 6 C-10 3 -10 3 -8.375 1.3125 C-5.41801336 -0.32162419 -3.32820054 -0.22692276 0 0 Z " fill="#1DB819" transform="translate(293,219)"/>
<path d="M0 0 C2.31 0 4.62 0 7 0 C6.67 1.65 6.34 3.3 6 5 C3.69 5 1.38 5 -1 5 C-0.67 3.35 -0.34 1.7 0 0 Z " fill="#D8D8D8" transform="translate(759,771)"/>
<path d="M0 0 C0.66 0.33 1.32 0.66 2 1 C0.02 3.31 -1.96 5.62 -4 8 C-5.32 7.67 -6.64 7.34 -8 7 C-5.36 4.69 -2.72 2.38 0 0 Z " fill="#DEFDDE" transform="translate(648,711)"/>
<path d="M0 0 C1 3 1 3 0 6 C-0.66 6 -1.32 6 -2 6 C-2.33 6.99 -2.66 7.98 -3 9 C-3.99 8.67 -4.98 8.34 -6 8 C-4.55746343 4.63408134 -2.66735273 2.48952921 0 0 Z " fill="#26BD21" transform="translate(102,130)"/>
<path d="M0 0 C0 0.66 0 1.32 0 2 C0.99 2.33 1.98 2.66 3 3 C3 3.99 3 4.98 3 6 C-0.91211733 4.84414715 -3.8745041 3.64465038 -7 1 C-4.50935112 0.31292445 -2.62113708 0 0 0 Z " fill="#D8F8D7" transform="translate(589,44)"/>
<path d="M0 0 C0.103125 0.78375 0.20625 1.5675 0.3125 2.375 C0.77595022 5.33045181 0.77595022 5.33045181 4 7 C4 7.99 4 8.98 4 10 C0.65001479 8.88333826 0.20659778 8.25305075 -1.6875 5.4375 C-2.12449219 4.79683594 -2.56148438 4.15617187 -3.01171875 3.49609375 C-3.50091797 2.75552734 -3.50091797 2.75552734 -4 2 C-1 0 -1 0 0 0 Z " fill="#1DB71B" transform="translate(304,486)"/>
<path d="M0 0 C1.32 0 2.64 0 4 0 C2.55746343 3.36591866 0.66735273 5.51047079 -2 8 C-2.33 6.35 -2.66 4.7 -3 3 C-2.01 3 -1.02 3 0 3 C0 2.01 0 1.02 0 0 Z " fill="#1BB918" transform="translate(501,475)"/>
<path d="M0 0 C0.33 0 0.66 0 1 0 C0.67 5.28 0.34 10.56 0 16 C-0.99 16 -1.98 16 -3 16 C-2.01 10.72 -1.02 5.44 0 0 Z " fill="#D0FBD0" transform="translate(527,420)"/>
<path d="M0 0 C1.32 1.65 2.64 3.3 4 5 C1 6 1 6 -1.1875 5.0625 C-1.785625 4.711875 -2.38375 4.36125 -3 4 C-3 4.66 -3 5.32 -3 6 C-4.32 6.33 -5.64 6.66 -7 7 C-2.25 1.125 -2.25 1.125 0 0 Z " fill="#1FB819" transform="translate(315,297)"/>
<path d="M0 0 C3.48670834 1.1094072 6.77484237 2.26337666 10 4 C9.67 5.32 9.34 6.64 9 8 C7.49712782 6.85793642 5.99776716 5.71125043 4.5 4.5625 C3.6646875 3.92441406 2.829375 3.28632813 1.96875 2.62890625 C1.3190625 2.09136719 0.669375 1.55382812 0 1 C0 0.67 0 0.34 0 0 Z " fill="#31B92C" transform="translate(526,236)"/>
<path d="M0 0 C4.24404412 3.88026891 7.10917547 8.04254346 10 13 C6.58841744 11.86280581 5.88145399 10.95657056 4 8 C4 7.34 4 6.68 4 6 C3.01 5.67 2.02 5.34 1 5 C0.67 3.35 0.34 1.7 0 0 Z " fill="#2CB329" transform="translate(716,159)"/>
<path d="M0 0 C1.98 1.65 3.96 3.3 6 5 C5.67 5.66 5.34 6.32 5 7 C3.68 7 2.36 7 1 7 C-0.0625 5.1875 -0.0625 5.1875 -1 3 C-0.67 2.01 -0.34 1.02 0 0 Z " fill="#1BBA17" transform="translate(690,128)"/>
<path d="M0 0 C3.48331435 3.01887244 4.79157144 5.56909529 6 10 C5.01 10 4.02 10 3 10 C2.67 8.02 2.34 6.04 2 4 C1.34 4 0.68 4 0 4 C0 2.68 0 1.36 0 0 Z " fill="#DCFCDB" transform="translate(49,598)"/>
<path d="M0 0 C0.33 0.99 0.66 1.98 1 3 C-2.3 5.64 -5.6 8.28 -9 11 C-9.66 10.67 -10.32 10.34 -11 10 C-5.555 5.05 -5.555 5.05 0 0 Z " fill="#D5FCD5" transform="translate(489,494)"/>
<path d="M0 0 C2 3 2 3 2.875 6.0625 C3.71071826 9.10913611 3.71071826 9.10913611 6.125 10.375 C6.74375 10.58125 7.3625 10.7875 8 11 C5.69 10.67 3.38 10.34 1 10 C0.67 6.7 0.34 3.4 0 0 Z " fill="#E3FCDF" transform="translate(597,344)"/>
<path d="M0 0 C0.33 1.32 0.66 2.64 1 4 C0.01 4.33 -0.98 4.66 -2 5 C-3.68538601 6.99665314 -3.68538601 6.99665314 -5 9 C-5.99 8.67 -6.98 8.34 -8 8 C-5.58443874 4.80800833 -3.31996462 2.25283313 0 0 Z " fill="#1CB41B" transform="translate(307,304)"/>
<path d="M0 0 C3.63 0 7.26 0 11 0 C7.96474514 2.02350324 6.80573798 2.32124018 3.3125 2.625 C2.50425781 2.69976562 1.69601562 2.77453125 0.86328125 2.8515625 C0.24839844 2.90054687 -0.36648438 2.94953125 -1 3 C-0.67 2.01 -0.34 1.02 0 0 Z " fill="#D3F8D0" transform="translate(379,267)"/>
<path d="M0 0 C2.97 0 5.94 0 9 0 C9.33 1.65 9.66 3.3 10 5 C6.08788267 3.84414715 3.1254959 2.64465038 0 0 Z " fill="#23BB1B" transform="translate(484,210)"/>
<path d="M0 0 C1 2 1 2 0.25 4.5625 C-1 7 -1 7 -4 8 C-4.33 8.99 -4.66 9.98 -5 11 C-5.66 10.67 -6.32 10.34 -7 10 C-4.69 6.7 -2.38 3.4 0 0 Z " fill="#28BA25" transform="translate(571,514)"/>
<path d="M0 0 C-2.88087546 2.40072955 -5.56404834 4.47291037 -9 6 C-8.39816251 3.97954558 -7.72693904 1.97888961 -7 0 C-4.3333581 -1.33332095 -2.83319697 -0.67102033 0 0 Z " fill="#25B81F" transform="translate(474,507)"/>
<path d="M0 0 C0.99 0.66 1.98 1.32 3 2 C1.02 3.32 -0.96 4.64 -3 6 C-3.66 5.34 -4.32 4.68 -5 4 C-3 1 -3 1 0 0 Z " fill="#17BC13" transform="translate(258,241)"/>
<path d="M0 0 C-2.09782787 2.09782787 -3.3799207 2.6509396 -6.125 3.625 C-6.84945313 3.88539063 -7.57390625 4.14578125 -8.3203125 4.4140625 C-9.15175781 4.70410156 -9.15175781 4.70410156 -10 5 C-9.67 4.01 -9.34 3.02 -9 2 C-8.34 2 -7.68 2 -7 2 C-7 1.34 -7 0.68 -7 0 C-4.3333581 -1.33332095 -2.83319697 -0.67102033 0 0 Z " fill="#24B620" transform="translate(322,205)"/>
<path d="M0 0 C2.40072955 2.88087546 4.47291037 5.56404834 6 9 C4.02 9 2.04 9 0 9 C0 6.03 0 3.06 0 0 Z " fill="#22BC1F" transform="translate(732,181)"/>
<path d="M0 0 C0.33 0.66 0.66 1.32 1 2 C0.67 2.66 0.34 3.32 0 4 C-0.99 4 -1.98 4 -3 4 C-3.66 5.65 -4.32 7.3 -5 9 C-5.33 8.34 -5.66 7.68 -6 7 C-6.66 6.67 -7.32 6.34 -8 6 C-5.36 4.02 -2.72 2.04 0 0 Z " fill="#26BB1E" transform="translate(169,71)"/>
<path d="M0 0 C1.98 0 3.96 0 6 0 C2.37464179 3.17218843 -1.51150278 4.42902597 -6 6 C-6 5.34 -6 4.68 -6 4 C-3 2 -3 2 0 2 C0 1.34 0 0.68 0 0 Z " fill="#D9FCDA" transform="translate(240,29)"/>
<path d="M0 0 C-3.40431947 2.26954631 -5.16524202 2.36549949 -9.1875 2.625 C-10.27417969 2.69976562 -11.36085938 2.77453125 -12.48046875 2.8515625 C-13.31191406 2.90054687 -14.14335937 2.94953125 -15 3 C-12.41464321 1.27642881 -10.96188386 0.55264982 -8.0625 -0.1875 C-7.39347656 -0.36667969 -6.72445313 -0.54585937 -6.03515625 -0.73046875 C-3.75319112 -1.03268678 -2.17973341 -0.68756692 0 0 Z " fill="#36BC34" transform="translate(302,13)"/>
<path d="M0 0 C1.32 0.33 2.64 0.66 4 1 C-0.455 3.97 -0.455 3.97 -5 7 C-5.33 6.01 -5.66 5.02 -6 4 C-4.35 3.67 -2.7 3.34 -1 3 C-0.67 2.01 -0.34 1.02 0 0 Z " fill="#DAFCD7" transform="translate(514,569)"/>
<path d="M0 0 C0.99 1.32 1.98 2.64 3 4 C2.01 4.33 1.02 4.66 0 5 C-1.01187895 6.65948148 -2.0126546 8.32580562 -3 10 C-3.66 10 -4.32 10 -5 10 C-3.66511872 6.40608886 -2.03977277 3.24509304 0 0 Z " fill="#2DBD29" transform="translate(577,504)"/>
<path d="M0 0 C1.4540625 0.0309375 1.4540625 0.0309375 2.9375 0.0625 C2.9375 0.3925 2.9375 0.7225 2.9375 1.0625 C1.2875 1.0625 -0.3625 1.0625 -2.0625 1.0625 C-2.0625 3.0425 -2.0625 5.0225 -2.0625 7.0625 C-2.7225 7.0625 -3.3825 7.0625 -4.0625 7.0625 C-4.3925 7.7225 -4.7225 8.3825 -5.0625 9.0625 C-4.06477273 0.08295455 -4.06477273 0.08295455 0 0 Z " fill="#29B828" transform="translate(603.0625,447.9375)"/>
<path d="M0 0 C3.26008643 3.16952847 6.22237877 6.39937989 9 10 C8.01 10.495 8.01 10.495 7 11 C6.38125 10.195625 5.7625 9.39125 5.125 8.5625 C3.25835959 5.96125481 3.25835959 5.96125481 1 5 C0.375 2.4375 0.375 2.4375 0 0 Z " fill="#D1FBD0" transform="translate(552,261)"/>
<path d="M0 0 C0.66 0.33 1.32 0.66 2 1 C1.34 1.66 0.68 2.32 0 3 C-0.99 3 -1.98 3 -3 3 C-3 3.66 -3 4.32 -3 5 C-5.31 5 -7.62 5 -10 5 C-6.76527494 2.84351662 -3.62848922 1.38542316 0 0 Z " fill="#D1F9D0" transform="translate(320,206)"/>
<path d="M0 0 C1.98 0 3.96 0 6 0 C4.35 1.98 2.7 3.96 1 6 C-0.0625 4.125 -0.0625 4.125 -1 2 C-0.67 1.34 -0.34 0.68 0 0 Z " fill="#31C02A" transform="translate(674,683)"/>
<path d="M0 0 C2 1 2 1 3.1875 3.9375 C4 7 4 7 3 9 C1.35 6.69 -0.3 4.38 -2 2 C-1.34 2 -0.68 2 0 2 C0 1.34 0 0.68 0 0 Z " fill="#18B912" transform="translate(82,641)"/>
<path d="M0 0 C1.32 0.66 2.64 1.32 4 2 C3.19152271 3.16945792 2.37810888 4.33550461 1.5625 5.5 C1.11003906 6.1496875 0.65757812 6.799375 0.19140625 7.46875 C-0.20175781 7.9740625 -0.59492187 8.479375 -1 9 C-1.33 9 -1.66 9 -2 9 C-2.125 6.625 -2.125 6.625 -2 4 C-1.34 3.34 -0.68 2.68 0 2 C0 1.34 0 0.68 0 0 Z " fill="#19B814" transform="translate(730,615)"/>
<path d="M0 0 C1.07174763 3.65188082 0.76411467 6.26432828 0 10 C-0.66 10 -1.32 10 -2 10 C-2.33 10.99 -2.66 11.98 -3 13 C-4 11 -4 11 -3.22265625 8.3984375 C-2.83980469 7.40070313 -2.45695313 6.40296875 -2.0625 5.375 C-1.68222656 4.37210937 -1.30195312 3.36921875 -0.91015625 2.3359375 C-0.60980469 1.56507813 -0.30945313 0.79421875 0 0 Z " fill="#35BE33" transform="translate(593,469)"/>
<path d="M0 0 C2.97 0.33 5.94 0.66 9 1 C9 2.32 9 3.64 9 5 C5.54074837 3.7508258 2.85306797 2.32472205 0 0 Z " fill="#CDF6CD" transform="translate(458,283)"/>
<path d="M0 0 C0.33 1.32 0.66 2.64 1 4 C-1.4375 6.75 -1.4375 6.75 -4 9 C-4.66 8.67 -5.32 8.34 -6 8 C-4.02 5.36 -2.04 2.72 0 0 Z " fill="#D2F9D4" transform="translate(237,266)"/>
<path d="M0 0 C2.91589609 4.37384413 4.30254716 7.70542471 4 13 C0.25474201 9.25474201 0.31090051 5.01729091 0 0 Z " fill="#27B822" transform="translate(768,250)"/>
<path d="M0 0 C0.99 0.33 1.98 0.66 3 1 C-0.465 5.95 -0.465 5.95 -4 11 C-4.33 9.68 -4.66 8.36 -5 7 C-4.01 6.67 -3.02 6.34 -2 6 C-0.77479736 2.99152582 -0.77479736 2.99152582 0 0 Z " fill="#DBFDD9" transform="translate(77,156)"/>
<path d="M0 0 C3.93673644 1.31224548 6.22719294 2.91910327 9 6 C6.36 5.67 3.72 5.34 1 5 C1.33 4.01 1.66 3.02 2 2 C1.34 2 0.68 2 0 2 C0 1.34 0 0.68 0 0 Z " fill="#22B71B" transform="translate(615,65)"/>
<path d="M0 0 C0.99 0.33 1.98 0.66 3 1 C3.6875 3.0625 3.6875 3.0625 4 5 C3.34 5 2.68 5 2 5 C1.34 6.32 0.68 7.64 0 9 C-0.66 7.68 -1.32 6.36 -2 5 C-1.01 4.34 -0.02 3.68 1 3 C0.67 2.01 0.34 1.02 0 0 Z " fill="#11BC0A" transform="translate(612,63)"/>
<path d="M0 0 C2.00720923 0.28674418 4.0085944 0.61866701 6 1 C3.37801226 3.15377564 1.35595828 4.40072174 -2 5 C-1.125 1.125 -1.125 1.125 0 0 Z " fill="#19B916" transform="translate(558,762)"/>
<path d="M0 0 C0.33 0.99 0.66 1.98 1 3 C-0.4375 5.1875 -0.4375 5.1875 -2 7 C-3.32 6.67 -4.64 6.34 -6 6 C-4.02 4.02 -2.04 2.04 0 0 Z " fill="#CDFACA" transform="translate(693,669)"/>
<path d="M0 0 C0.33 0.66 0.66 1.32 1 2 C0.26418258 3.1549921 -0.48930039 4.29874185 -1.25 5.4375 C-1.66765625 6.07558594 -2.0853125 6.71367188 -2.515625 7.37109375 C-4.27248877 9.29902057 -5.46089803 9.61479436 -8 10 C-7.59007812 9.52949219 -7.18015625 9.05898438 -6.7578125 8.57421875 C-6.21898437 7.95160156 -5.68015625 7.32898438 -5.125 6.6875 C-4.59132813 6.07261719 -4.05765625 5.45773437 -3.5078125 4.82421875 C-1.8359553 2.86501788 -1.8359553 2.86501788 0 0 Z " fill="#C5F7C5" transform="translate(704,656)"/>
<path d="M0 0 C-2.87164566 2.70272533 -4.30991841 3.94791837 -8.3125 4.25 C-9.199375 4.1675 -10.08625 4.085 -11 4 C-3.77464789 -1.88732394 -3.77464789 -1.88732394 0 0 Z " fill="#30BB2B" transform="translate(496,585)"/>
<path d="M0 0 C1.15866723 4.63466892 0.70010994 7.33260039 0 12 C-0.99 12 -1.98 12 -3 12 C-2.01 8.04 -1.02 4.08 0 0 Z " fill="#C9F7CA" transform="translate(783,505)"/>
<path d="M0 0 C2.64465038 3.1254959 3.84414715 6.08788267 5 10 C4.01 10 3.02 10 2 10 C2 8.35 2 6.7 2 5 C1.34 5 0.68 5 0 5 C0 3.35 0 1.7 0 0 Z " fill="#2ABD26" transform="translate(515,342)"/>
<path d="M0 0 C3.3 1.65 6.6 3.3 10 5 C8.68 5.33 7.36 5.66 6 6 C5.34 5.34 4.68 4.68 4 4 C1.93125966 3.3574765 1.93125966 3.3574765 0 3 C0 2.01 0 1.02 0 0 Z " fill="#D6FBD6" transform="translate(491,214)"/>
<path d="M0 0 C1.0828125 0.37125 1.0828125 0.37125 2.1875 0.75 C0.8675 2.07 -0.4525 3.39 -1.8125 4.75 C-1.8125 4.09 -1.8125 3.43 -1.8125 2.75 C-3.7925 3.08 -5.7725 3.41 -7.8125 3.75 C-3.50480769 -0.31153846 -3.50480769 -0.31153846 0 0 Z " fill="#1DBD1B" transform="translate(191.8125,58.25)"/>
<path d="M0 0 C1.32 0.33 2.64 0.66 4 1 C4 2.32 4 3.64 4 5 C2.68 5 1.36 5 0 5 C0 3.35 0 1.7 0 0 Z " fill="#F7F7F7" transform="translate(746,767)"/>
<path d="M0 0 C1.32 0.33 2.64 0.66 4 1 C4 1.99 4 2.98 4 4 C2.02 4 0.04 4 -2 4 C-1.34 2.68 -0.68 1.36 0 0 Z " fill="#CFCFCF" transform="translate(759,765)"/>
<path d="M0 0 C2.475 0.495 2.475 0.495 5 1 C5 2.98 5 4.96 5 7 C3.29115995 5.37660195 1.62553283 3.70680947 0 2 C0 1.34 0 0.68 0 0 Z " fill="#24B620" transform="translate(73,633)"/>
<path d="M0 0 C2.64 0 5.28 0 8 0 C8 0.66 8 1.32 8 2 C8.99 2.33 9.98 2.66 11 3 C9 4 9 4 6.8359375 3.44140625 C6.02382813 3.15136719 5.21171875 2.86132812 4.375 2.5625 C3.55773437 2.27503906 2.74046875 1.98757813 1.8984375 1.69140625 C1.27195312 1.46324219 0.64546875 1.23507812 0 1 C0 0.67 0 0.34 0 0 Z " fill="#C5F7C1" transform="translate(325,595)"/>
<path d="M0 0 C2 2 2 2 2.125 5.625 C2.08375 6.73875 2.0425 7.8525 2 9 C-0.15377564 6.37801226 -1.40072174 4.35595828 -2 1 C-1.34 0.67 -0.68 0.34 0 0 Z " fill="#18B515" transform="translate(37,567)"/>
<path d="M0 0 C0.33 0.66 0.66 1.32 1 2 C0.34 2 -0.32 2 -1 2 C-1.28875 2.639375 -1.5775 3.27875 -1.875 3.9375 C-3 6 -3 6 -5 7 C-5.66 6.34 -6.32 5.68 -7 5 C-4.69 3.35 -2.38 1.7 0 0 Z " fill="#24B81D" transform="translate(524,565)"/>
<path d="M0 0 C0.99 0.33 1.98 0.66 3 1 C3 3.97 3 6.94 3 10 C1 6 1 6 1 2 C0.01 1.67 -0.98 1.34 -2 1 C-1.34 0.67 -0.68 0.34 0 0 Z " fill="#E3FEE1" transform="translate(194,445)"/>
<path d="M0 0 C1.32 0.33 2.64 0.66 4 1 C4 1.66 4 2.32 4 3 C4.99 3 5.98 3 7 3 C7.66 4.65 8.32 6.3 9 8 C7.68388323 7.04663979 6.37221039 6.08714226 5.0625 5.125 C4.33160156 4.59132813 3.60070312 4.05765625 2.84765625 3.5078125 C1 2 1 2 0 0 Z " fill="#D2F8CC" transform="translate(481,298)"/>
<path d="M0 0 C0.33 0.66 0.66 1.32 1 2 C0.22265625 3.9453125 0.22265625 3.9453125 -0.9375 6.125 C-1.31777344 6.84945313 -1.69804687 7.57390625 -2.08984375 8.3203125 C-2.39019531 8.87460937 -2.69054687 9.42890625 -3 10 C-3.66 10 -4.32 10 -5 10 C-3.66511872 6.40608886 -2.03977277 3.24509304 0 0 Z " fill="#D3FBD2" transform="translate(220,290)"/>
<path d="M0 0 C1.32 0.33 2.64 0.66 4 1 C2.87926138 1.83905565 1.75325453 2.67107831 0.625 3.5 C-0.00148438 3.9640625 -0.62796875 4.428125 -1.2734375 4.90625 C-3 6 -3 6 -5 6 C-5.33 5.01 -5.66 4.02 -6 3 C-4.02 2.67 -2.04 2.34 0 2 C0 1.34 0 0.68 0 0 Z " fill="#D5FAD2" transform="translate(322,289)"/>
<path d="M0 0 C1.65 0 3.3 0 5 0 C5.66 1.65 6.32 3.3 7 5 C6.01 5 5.02 5 4 5 C1.8125 2.5 1.8125 2.5 0 0 Z " fill="#30BC2B" transform="translate(542,250)"/>
<path d="M0 0 C0.66 0 1.32 0 2 0 C2.33 1.65 2.66 3.3 3 5 C2.34 5 1.68 5 1 5 C0.67 5.99 0.34 6.98 0 8 C-0.33 8 -0.66 8 -1 8 C-0.67 5.36 -0.34 2.72 0 0 Z " fill="#1CBA16" transform="translate(765,245)"/>
<path d="M0 0 C2.31 1.65 4.62 3.3 7 5 C6.34 6.32 5.68 7.64 5 9 C4.16094435 7.87926138 3.32892169 6.75325453 2.5 5.625 C2.0359375 4.99851563 1.571875 4.37203125 1.09375 3.7265625 C0 2 0 2 0 0 Z " fill="#E0FEE0" transform="translate(528,238)"/>
<path d="M0 0 C2.125 0.9375 2.125 0.9375 4 2 C-1.75 6 -1.75 6 -4 6 C-4 5.34 -4 4.68 -4 4 C-3.34 4 -2.68 4 -2 4 C-2 3.01 -2 2.02 -2 1 C-1.34 0.67 -0.68 0.34 0 0 Z " fill="#DBFDDC" transform="translate(173,65)"/>
<path d="M0 0 C3 1 3 1 5 4 C3.02 4.33 1.04 4.66 -1 5 C-1.33 4.01 -1.66 3.02 -2 2 C-1.34 1.34 -0.68 0.68 0 0 Z " fill="#18BD13" transform="translate(513,778)"/>
<path d="M0 0 C3.55780196 0.60990891 6.6828589 1.5783681 10 3 C10 3.33 10 3.66 10 4 C7.25 4.25 7.25 4.25 4 4 C1.625 2 1.625 2 0 0 Z " fill="#DDFDDB" transform="translate(241,769)"/>
<path d="M0 0 C2.475 0.99 2.475 0.99 5 2 C4.67 3.65 4.34 5.3 4 7 C1.49962266 4.82575883 0.56371414 3.26954202 0 0 Z " fill="#2AB923" transform="translate(47,592)"/>
<path d="M0 0 C0 0.99 0 1.98 0 3 C-4.455 3.495 -4.455 3.495 -9 4 C-3 0 -3 0 0 0 Z " fill="#2EBA2C" transform="translate(485,589)"/>
<path d="M0 0 C1.98 0 3.96 0 6 0 C6.66 1.65 7.32 3.3 8 5 C4.62496331 3.8141763 2.35277269 2.72426311 0 0 Z " fill="#D5FAD2" transform="translate(287,576)"/>
<path d="M0 0 C0.99 0.33 1.98 0.66 3 1 C1.68 3.64 0.36 6.28 -1 9 C-1.33 9 -1.66 9 -2 9 C-2 7.35 -2 5.7 -2 4 C-1.34 4 -0.68 4 0 4 C0 2.68 0 1.36 0 0 Z " fill="#20B61B" transform="translate(757,569)"/>
<path d="M0 0 C0.33 0.66 0.66 1.32 1 2 C-1.12055614 5.1808342 -2.63050557 6.31525278 -6 8 C-6.66 7.67 -7.32 7.34 -8 7 C-5.36 4.69 -2.72 2.38 0 0 Z " fill="#35B831" transform="translate(533,557)"/>
<path d="M0 0 C0.66 0 1.32 0 2 0 C4.09350689 3.4019487 4.17942163 6.05272412 4 10 C1.81024227 6.71536341 1.00193437 3.79303725 0 0 Z " fill="#23B621" transform="translate(25,545)"/>
<path d="M0 0 C2.61273988 1.30636994 2.97236124 2.28409758 4 5 C4.125 8.25 4.125 8.25 4 11 C1.55160412 7.32740617 0 4.45351799 0 0 Z " fill="#20B41E" transform="translate(19,528)"/>
<path d="M0 0 C0 3.15081975 -0.27898465 4.41847698 -2 7 C-4.125 7.75 -4.125 7.75 -6 8 C-2.25 2.25 -2.25 2.25 0 0 Z " fill="#2FBB2D" transform="translate(298,313)"/>
<path d="M0 0 C2.15377564 2.62198774 3.40072174 4.64404172 4 8 C3.34 8 2.68 8 2 8 C2 7.34 2 6.68 2 6 C1.01 6.33 0.02 6.66 -1 7 C-0.67 4.69 -0.34 2.38 0 0 Z " fill="#CDF5CA" transform="translate(582,304)"/>
<path d="M0 0 C3.00617269 3.00617269 2.59585316 5.82381598 3 10 C2.67 9.34 2.34 8.68 2 8 C1.34 8 0.68 8 0 8 C0 5.36 0 2.72 0 0 Z " fill="#2DBA27" transform="translate(783,296)"/>
<path d="M0 0 C1.65 0 3.3 0 5 0 C5 0.66 5 1.32 5 2 C5.66 2.33 6.32 2.66 7 3 C6.01 4.485 6.01 4.485 5 6 C3.35 4.02 1.7 2.04 0 0 Z " fill="#20BC18" transform="translate(536,244)"/>
<path d="M0 0 C2.31 0.33 4.62 0.66 7 1 C6.67 2.65 6.34 4.3 6 6 C3.97945196 4.35830472 1.97956942 2.69088222 0 1 C0 0.67 0 0.34 0 0 Z " fill="#D4FACC" transform="translate(686,123)"/>
<path d="M0 0 C2.31 1.98 4.62 3.96 7 6 C6.01 6.33 5.02 6.66 4 7 C1.23609263 4.59660228 0.95934081 3.83736322 0 0 Z " fill="#23B51F" transform="translate(664,102)"/>
<path d="M0 0 C3.99500618 1.3697164 6.80009492 3.25722422 10 6 C6.33118845 5.29445932 3.29549466 3.72264494 0 2 C0 1.34 0 0.68 0 0 Z " fill="#25B221" transform="translate(592,51)"/>
<path d="M0 0 C2.15377564 2.62198774 3.40072174 4.64404172 4 8 C3.01 8 2.02 8 1 8 C0.67 5.36 0.34 2.72 0 0 Z " fill="#D1F9D2" transform="translate(43,586)"/>
<path d="M0 0 C1.98 0.99 3.96 1.98 6 3 C4.1875 4.0625 4.1875 4.0625 2 5 C1.01 4.67 0.02 4.34 -1 4 C-0.67 2.68 -0.34 1.36 0 0 Z " fill="#1CB815" transform="translate(287,577)"/>
<path d="M0 0 C-0.33 1.32 -0.66 2.64 -1 4 C-3.31 4.33 -5.62 4.66 -8 5 C-3.22727273 0 -3.22727273 0 0 0 Z " fill="#24B924" transform="translate(511,575)"/>
<path d="M0 0 C1.98 1.65 3.96 3.3 6 5 C2.25 6.125 2.25 6.125 0 5 C0 3.35 0 1.7 0 0 Z " fill="#D7FBD1" transform="translate(307,496)"/>
<path d="M0 0 C2.475 0.495 2.475 0.495 5 1 C5.33 2.98 5.66 4.96 6 7 C1.125 2.25 1.125 2.25 0 0 Z " fill="#1FB417" transform="translate(552,260)"/>
<path d="M0 0 C0.33 0.66 0.66 1.32 1 2 C0.22265625 3.7265625 0.22265625 3.7265625 -0.9375 5.625 C-1.618125 6.73875 -2.29875 7.8525 -3 9 C-3.66 9 -4.32 9 -5 9 C-3.50163895 5.88801935 -1.80066242 2.9465385 0 0 Z " fill="#2EB428" transform="translate(67,174)"/>
<path d="M0 0 C2.31 1.98 4.62 3.96 7 6 C4 6 4 6 1 5 C0.67 3.35 0.34 1.7 0 0 Z " fill="#1AB013" transform="translate(683,121)"/>
<path d="M0 0 C3.65316671 1.24976756 4.78065836 1.67098753 7 5 C4.625 4.75 4.625 4.75 2 4 C0.6875 1.9375 0.6875 1.9375 0 0 Z " fill="#1FB91B" transform="translate(628,74)"/>
<path d="M0 0 C2.31 0.66 4.62 1.32 7 2 C7 2.66 7 3.32 7 4 C7.66 4 8.32 4 9 4 C8.67 4.66 8.34 5.32 8 6 C6.66402348 5.19185349 5.331275 4.37836819 4 3.5625 C3.2575 3.11003906 2.515 2.65757813 1.75 2.19140625 C1.1725 1.79824219 0.595 1.40507813 0 1 C0 0.67 0 0.34 0 0 Z " fill="#C8F8C5" transform="translate(599,54)"/>
<path d="M0 0 C0.66 0.33 1.32 0.66 2 1 C0.35 2.32 -1.3 3.64 -3 5 C-4.32 4.34 -5.64 3.68 -7 3 C-4.69631264 1.93347808 -2.35981813 0.93578995 0 0 Z " fill="#26B81F" transform="translate(240,32)"/>
</svg>
